<svg version="1.1" viewBox="0.0 0.0 907.0866141732283 491.33858267716533" fill="none" stroke="none" stroke-linecap="square" stroke-miterlimit="10" xmlns:xlink="http://www.w3.org/1999/xlink" xmlns="http://www.w3.org/2000/svg"><clipPath id="p.0"><path d="m0 0l907.0866 0l0 491.3386l-907.0866 0l0 -491.3386z" clip-rule="nonzero"/></clipPath><g clip-path="url(#p.0)"><path fill="#000000" fill-opacity="0.0" d="m0 0l907.0866 0l0 491.3386l-907.0866 0z" fill-rule="evenodd"/><path fill="#d9d2e9" d="m21.122047 46.057743l252.8819 0l0 225.48032l-252.8819 0z" fill-rule="evenodd"/><path fill="#000000" d="m106.898796 138.2404q3.234375 0 4.359375 2.34375l-1.65625 1.09375q-0.921875 -1.765625 -2.828125 -1.765625q-1.171875 0 -1.9375 0.53125q-0.765625 0.53125 -0.765625 1.4375q0 0.859375 0.609375 1.328125q0.609375 0.453125 2.40625 0.859375q2.375 0.5 3.1875 1.125q0.8125 0.625 1.125 1.390625q0.3125 0.75 0.3125 1.390625q0 1.890625 -1.40625 2.96875q-1.390625 1.078125 -3.6875 1.078125q-3.34375 0 -5.046875 -2.5625l1.59375 -1.078125q1.296875 1.953125 3.453125 1.953125q1.375 0 2.21875 -0.59375q0.859375 -0.609375 0.859375 -1.640625q0 -0.84375 -0.734375 -1.359375q-0.71875 -0.515625 -2.796875 -0.9375q-4.109375 -0.8125 -4.109375 -3.609375q0 -1.796875 1.34375 -2.875q1.34375 -1.078125 3.5 -1.078125zm9.03743 -6.046875q0.53125 0 0.9375 0.40625q0.40625 0.40625 0.40625 0.9375q0 0.5625 -0.40625 0.953125q-0.40625 0.390625 -0.9375 0.390625q-0.5 0 -0.921875 -0.390625q-0.421875 -0.390625 -0.421875 -0.953125q0 -0.5625 0.421875 -0.953125q0.421875 -0.390625 0.921875 -0.390625zm0.921875 6.375l0 13.109375l-1.84375 0l0 -13.109375l1.84375 0zm8.688782 -0.328125q3.2343674 0 4.3593674 2.34375l-1.65625 1.09375q-0.9218674 -1.765625 -2.8281174 -1.765625q-1.171875 0 -1.9375 0.53125q-0.765625 0.53125 -0.765625 1.4375q0 0.859375 0.609375 1.328125q0.609375 0.453125 2.40625 0.859375q2.3749924 0.5 3.1874924 1.125q0.8125 0.625 1.125 1.390625q0.3125 0.75 0.3125 1.390625q0 1.890625 -1.40625 2.96875q-1.3906174 1.078125 -3.6874924 1.078125q-3.34375 0 -5.046875 -2.5625l1.59375 -1.078125q1.296875 1.953125 3.453125 1.953125q1.375 0 2.21875 -0.59375q0.8593674 -0.609375 0.8593674 -1.640625q0 -0.84375 -0.7343674 -1.359375q-0.71875 -0.515625 -2.796875 -0.9375q-4.109375 -0.8125 -4.109375 -3.609375q0 -1.796875 1.34375 -2.875q1.34375 -1.078125 3.5 -1.078125zm10.693672 -3.359375l0 3.6875l3.78125 0l0 1.6875l-3.78125 0l0 7.84375q0 1.0625 0.40625 1.65625q0.40625 0.578125 1.5 0.578125q0.953125 0 1.890625 -0.5l0.09375 1.703125q-1.09375 0.484375 -2.5 0.484375q-1.53125 0 -2.390625 -0.890625q-0.859375 -0.90625 -0.859375 -2.5l0 -8.375l-2.765625 0l0 -1.6875l2.765625 0l0 -3.6875l1.859375 0zm12.202286 3.359375q2.890625 0 4.59375 1.890625q1.703125 1.890625 1.703125 4.9375l0 0.5625l-10.921875 0q0.234375 2.046875 1.578125 3.375q1.34375 1.328125 3.25 1.328125q1.25 0 2.375 -0.59375q1.140625 -0.609375 1.8125 -1.671875l1.4375 1.171875q-2.234375 2.78125 -5.625 2.78125q-2.921875 0 -4.859375 -1.953125q-1.921875 -1.96875 -1.921875 -4.9375q0 -2.890625 1.90625 -4.890625q1.90625 -2.0 4.671875 -2.0zm4.28125 5.875q0 -1.921875 -1.15625 -3.0625q-1.15625 -1.140625 -3.09375 -1.140625q-1.703125 0 -3.125 1.25q-1.40625 1.25 -1.46875 2.953125l8.84375 0zm11.505569 -5.875q3.109375 0 4.171875 2.71875q0.59375 -1.296875 1.796875 -2.0q1.203125 -0.71875 2.546875 -0.71875q2.4375 0 3.671875 1.3125q1.234375 1.3125 1.234375 3.703125l0 8.421875l-1.84375 0l0 -7.78125q0 -2.046875 -0.78125 -3.015625q-0.765625 -0.96875 -2.53125 -0.96875q-1.8125 0 -2.75 1.3125q-0.9375 1.296875 -0.9375 3.375l0 7.078125l-1.859375 0l0 -7.78125q0 -2.046875 -0.75 -3.015625q-0.75 -0.96875 -2.515625 -0.96875q-1.65625 0 -2.703125 1.375q-1.03125 1.375 -1.03125 3.734375l0 6.65625l-1.84375 0l0 -10.359375q0 -1.5625 -0.140625 -2.75l1.984375 0l0 2.0l0.0625 0q0.609375 -1.046875 1.78125 -1.6875q1.1875 -0.640625 2.4375 -0.640625zm23.168594 0q2.265625 0 3.53125 1.265625q1.28125 1.25 1.28125 3.296875l0 6.078125q0 1.28125 0.21875 2.796875l-1.78125 0q-0.171875 -0.875 -0.171875 -2.125l-0.0625 0q-0.8125 1.28125 -1.921875 1.875q-1.09375 0.59375 -2.6875 0.59375q-2.015625 0 -3.265625 -1.0625q-1.25 -1.078125 -1.25 -2.78125q0 -2.359375 1.96875 -3.4375q1.984375 -1.09375 6.265625 -1.09375l0.84375 0l0 -0.28125q0 -1.796875 -0.828125 -2.625q-0.828125 -0.828125 -2.53125 -0.828125q-2.296875 0 -4.015625 1.546875l-1.109375 -1.3125q1.84375 -1.90625 5.515625 -1.90625zm-4.09375 9.6875q0 1.125 0.84375 1.765625q0.859375 0.640625 2.234375 0.640625q1.796875 0 2.890625 -1.109375q1.09375 -1.109375 1.09375 -3.375l0 -0.703125l-1.296875 0q-2.625 0 -4.203125 0.671875q-1.5625 0.671875 -1.5625 2.109375z" fill-rule="nonzero"/><path fill="#000000" d="m89.581345 172.2404q3.109375 0 4.171875 2.71875q0.59375 -1.296875 1.796875 -2.0q1.203125 -0.71875 2.546875 -0.71875q2.4375 0 3.671875 1.3125q1.234375 1.3125 1.234375 3.703125l0 8.421875l-1.84375 0l0 -7.78125q0 -2.046875 -0.78125 -3.015625q-0.765625 -0.96875 -2.53125 -0.96875q-1.8125 0 -2.75 1.3125q-0.9375 1.296875 -0.9375 3.375l0 7.078125l-1.859375 0l0 -7.78125q0 -2.046875 -0.75 -3.015625q-0.75 -0.96875 -2.515625 -0.96875q-1.65625 0 -2.703125 1.375q-1.03125 1.375 -1.03125 3.734375l0 6.65625l-1.84375 0l0 -10.359375q0 -1.5625 -0.140625 -2.75l1.984375 0l0 2.0l0.0625 0q0.609375 -1.046875 1.78125 -1.6875q1.1875 -0.640625 2.4375 -0.640625zm23.99672 0q2.96875 0 4.96875 1.9375q2.015625 1.921875 2.015625 4.953125q0 2.96875 -1.953125 4.9375q-1.9375 1.953125 -5.03125 1.953125q-3.015625 0 -4.984375 -1.953125q-1.953125 -1.96875 -1.953125 -4.9375q0 -2.921875 1.953125 -4.90625q1.96875 -1.984375 4.984375 -1.984375zm-4.921875 6.890625q0 2.265625 1.359375 3.734375q1.359375 1.46875 3.5625 1.46875q2.25 0 3.609375 -1.5q1.359375 -1.5 1.359375 -3.703125q0 -2.328125 -1.40625 -3.765625q-1.40625 -1.453125 -3.578125 -1.453125q-2.21875 0 -3.5625 1.5q-1.34375 1.5 -1.34375 3.71875zm21.55719 -6.890625q2.46875 0 3.703125 1.3125q1.234375 1.3125 1.234375 3.703125l0 8.421875l-1.859375 0l0 -7.390625q0 -2.21875 -0.8125 -3.296875q-0.8125 -1.078125 -2.625 -1.078125q-1.796875 0 -2.953125 1.375q-1.140625 1.375 -1.140625 3.78125l0 6.609375l-1.84375 0l0 -10.328125q0 -1.59375 -0.140625 -2.78125l1.90625 0q0.078125 0.796875 0.078125 2.109375l0.0625 0q0.609375 -1.09375 1.84375 -1.765625q1.234375 -0.671875 2.546875 -0.671875zm15.536819 0q2.96875 0 4.9687347 1.9375q2.015625 1.921875 2.015625 4.953125q0 2.96875 -1.953125 4.9375q-1.9374847 1.953125 -5.0312347 1.953125q-3.015625 0 -4.984375 -1.953125q-1.953125 -1.96875 -1.953125 -4.9375q0 -2.921875 1.953125 -4.90625q1.96875 -1.984375 4.984375 -1.984375zm-4.921875 6.890625q0 2.265625 1.359375 3.734375q1.359375 1.46875 3.5625 1.46875q2.25 0 3.6093597 -1.5q1.359375 -1.5 1.359375 -3.703125q0 -2.328125 -1.40625 -3.765625q-1.4062347 -1.453125 -3.5781097 -1.453125q-2.21875 0 -3.5625 1.5q-1.34375 1.5 -1.34375 3.71875zm17.525925 -14.625l0 21.171875l-1.84375 0l0 -21.171875l1.84375 0zm5.826172 1.6875q0.53125 0 0.9375 0.40625q0.40625 0.40625 0.40625 0.9375q0 0.5625 -0.40625 0.953125q-0.40625 0.390625 -0.9375 0.390625q-0.5 0 -0.921875 -0.390625q-0.421875 -0.390625 -0.421875 -0.953125q0 -0.5625 0.421875 -0.953125q0.421875 -0.390625 0.921875 -0.390625zm0.921875 6.375l0 13.109375l-1.84375 0l0 -13.109375l1.84375 0zm7.4544067 -3.6875l0 3.6875l3.78125 0l0 1.6875l-3.78125 0l0 7.84375q0 1.0625 0.40625 1.65625q0.40625 0.578125 1.5 0.578125q0.953125 0 1.890625 -0.5l0.09375 1.703125q-1.09375 0.484375 -2.5 0.484375q-1.53125 0 -2.390625 -0.890625q-0.859375 -0.90625 -0.859375 -2.5l0 -8.375l-2.765625 0l0 -1.6875l2.765625 0l0 -3.6875l1.859375 0zm7.6677856 -2.6875q0.53125 0 0.9375 0.40625q0.40625 0.40625 0.40625 0.9375q0 0.5625 -0.40625 0.953125q-0.40625 0.390625 -0.9375 0.390625q-0.5 0 -0.921875 -0.390625q-0.421875 -0.390625 -0.421875 -0.953125q0 -0.5625 0.421875 -0.953125q0.421875 -0.390625 0.921875 -0.390625zm0.921875 6.375l0 13.109375l-1.84375 0l0 -13.109375l1.84375 0zm10.610657 -0.328125q2.96875 0 4.90625 2.265625l-1.515625 1.140625q-1.203125 -1.734375 -3.328125 -1.734375q-2.1875 0 -3.53125 1.46875q-1.34375 1.453125 -1.34375 3.75q0 2.34375 1.34375 3.78125q1.34375 1.421875 3.4375 1.421875q2.25 0 3.421875 -1.734375l1.515625 1.140625q-1.875 2.28125 -4.953125 2.28125q-3.03125 0 -4.90625 -1.953125q-1.875 -1.96875 -1.875 -4.9375q0 -3.03125 1.90625 -4.953125q1.90625 -1.9375 4.921875 -1.9375zm13.605438 0q2.96875 0 4.96875 1.9375q2.015625 1.921875 2.015625 4.953125q0 2.96875 -1.953125 4.9375q-1.9375 1.953125 -5.03125 1.953125q-3.015625 0 -4.984375 -1.953125q-1.953125 -1.96875 -1.953125 -4.9375q0 -2.921875 1.953125 -4.90625q1.96875 -1.984375 4.984375 -1.984375zm-4.921875 6.890625q0 2.265625 1.359375 3.734375q1.359375 1.46875 3.5625 1.46875q2.25 0 3.609375 -1.5q1.359375 -1.5 1.359375 -3.703125q0 -2.328125 -1.40625 -3.765625q-1.40625 -1.453125 -3.578125 -1.453125q-2.21875 0 -3.5625 1.5q-1.34375 1.5 -1.34375 3.71875z" fill-rule="nonzero"/><path fill="#3c78d8" d="m53.074802 28.118267l0 0c0 -4.3487854 3.5253868 -7.874172 7.874172 -7.874172l173.22803 0c2.0883636 0 4.0911865 0.8295975 5.5678864 2.3062916c1.4766998 1.4766941 2.3062897 3.4795208 2.3062897 5.5678806l0 31.49575c0 4.3487854 -3.5253906 7.874172 -7.874176 7.874172l-173.22803 0c-4.3487854 0 -7.874172 -3.5253868 -7.874172 -7.874172z" fill-rule="evenodd"/><path fill="#ffffff" d="m76.86073 37.583015q0.4375 0 0.75 0.3125q0.3125 0.296875 0.3125 0.75q0 0.46875 -0.296875 0.765625q-0.296875 0.296875 -0.765625 0.296875q-0.46875 0 -0.765625 -0.296875q-0.296875 -0.296875 -0.296875 -0.765625q0 -0.453125 0.3125 -0.75q0.328125 -0.3125 0.75 -0.3125zm0.734375 4.46875l0 8.734375l-1.453125 0l0 -8.734375l1.453125 0zm7.1806335 -0.21875q1.640625 0 2.484375 0.953125q0.84375 0.953125 0.84375 2.53125l0 5.46875l-1.46875 0l0 -5.296875q0 -1.015625 -0.46875 -1.65625q-0.453125 -0.640625 -1.515625 -0.65625q-1.34375 0 -2.03125 0.890625q-0.6875 0.875 -0.6875 2.453125l0 4.265625l-1.453125 0l0 -6.796875q0 -0.09375 -0.0625 -1.9375l1.375 0q0.03125 1.3125 0.03125 1.4375l0.046875 0q0.34375 -0.75 1.140625 -1.203125q0.796875 -0.453125 1.765625 -0.453125zm8.279129 -2.265625l0 2.484375l2.578125 0l0 1.234375l-2.578125 0l0 4.671875q0 1.03125 0.328125 1.375q0.34375 0.328125 0.984375 0.328125q0.71875 0 1.28125 -0.296875l0.0625 1.328125q-0.75 0.3125 -1.703125 0.3125q-1.34375 0 -1.875 -0.65625q-0.53125 -0.65625 -0.53125 -2.171875l0 -4.890625l-1.90625 0l0 -1.234375l1.90625 0l0 -2.484375l1.453125 0zm8.348251 2.265625q1.9375 0 3.03125 1.21875q1.09375 1.21875 1.109375 3.46875l0 0.34375l-7.0625 0q0.125 1.21875 0.921875 2.0q0.796875 0.78125 1.953125 0.796875q1.78125 0 2.765625 -1.3125l1.09375 0.859375q-0.6875 0.890625 -1.625 1.34375q-0.921875 0.453125 -2.234375 0.453125q-1.984375 0 -3.203125 -1.296875q-1.21875 -1.296875 -1.234375 -3.28125q0 -1.984375 1.234375 -3.265625q1.25 -1.296875 3.25 -1.328125zm2.5625 3.796875q-0.046875 -1.125 -0.734375 -1.78125q-0.671875 -0.671875 -1.90625 -0.671875q-1.125 0 -1.890625 0.640625q-0.765625 0.625 -0.953125 1.8125l5.484375 0zm8.122879 -3.796875q0.328125 0 0.59375 0.09375l-0.09375 1.46875q-0.40625 -0.109375 -0.78125 -0.109375q-1.265625 0 -1.921875 0.828125q-0.640625 0.828125 -0.640625 2.34375l0 4.328125l-1.453125 0l0 -6.796875q0 -0.25 -0.0625 -1.9375l1.375 0q0.03125 1.3125 0.03125 1.4375l0.046875 0q0.34375 -0.75 1.140625 -1.203125q0.796875 -0.453125 1.765625 -0.453125zm6.0982513 -5.375q0.734375 0 1.140625 0.21875l-0.203125 1.3125q-0.53125 -0.1875 -0.984375 -0.1875q-0.921875 0 -1.25 0.53125q-0.328125 0.53125 -0.328125 1.765625l0 1.953125l2.125 0l0 1.234375l-2.125 0l0 7.5l-1.453125 0l0 -7.5l-1.90625 0l0 -1.234375l1.90625 0l0 -1.96875q0 -3.625 3.078125 -3.625zm5.4079742 5.375q1.90625 0 2.765625 0.90625q0.875 0.890625 0.890625 2.6875l0 3.921875q0 0.5625 0.140625 1.4375l-1.40625 0q-0.09375 -0.171875 -0.09375 -1.3125l-0.03125 0q-1.0 1.5 -2.875 1.53125q-1.4375 0 -2.34375 -0.71875q-0.90625 -0.71875 -0.90625 -1.875q0 -1.578125 1.296875 -2.3125q1.3125 -0.734375 4.09375 -0.734375l0.671875 0l0 -0.25q0 -1.90625 -2.15625 -1.9375q-1.578125 0 -2.59375 0.953125l-0.921875 -0.953125q1.34375 -1.3125 3.46875 -1.34375zm-2.296875 6.4375q0 1.46875 1.921875 1.515625q1.140625 0 1.859375 -0.734375q0.71875 -0.734375 0.71875 -2.125l0 -0.34375l-1.609375 0q-1.28125 0 -2.078125 0.421875q-0.78125 0.40625 -0.8125 1.265625zm12.651352 -6.4375q2.078125 0 3.34375 1.375l-1.15625 1.03125q-0.875 -1.0625 -2.203125 -1.0625q-1.359375 0 -2.15625 0.890625q-0.796875 0.875 -0.796875 2.359375q0 1.390625 0.84375 2.3125q0.859375 0.90625 2.109375 0.921875q1.4375 0 2.21875 -1.078125l1.078125 1.03125q-1.203125 1.375 -3.296875 1.390625q-2.0 -0.015625 -3.234375 -1.265625q-1.234375 -1.25 -1.28125 -3.3125q0.015625 -2.09375 1.296875 -3.34375q1.296875 -1.25 3.234375 -1.25zm8.99231 0q2.078125 0 3.34375 1.375l-1.15625 1.03125q-0.875 -1.0625 -2.203125 -1.0625q-1.359375 0 -2.15625 0.890625q-0.796875 0.875 -0.796875 2.359375q0 1.390625 0.84375 2.3125q0.859375 0.90625 2.109375 0.921875q1.4375 0 2.21875 -1.078125l1.078125 1.03125q-1.203125 1.375 -3.296875 1.390625q-2.0 -0.015625 -3.234375 -1.265625q-1.234375 -1.25 -1.28125 -3.3125q0.015625 -2.09375 1.296875 -3.34375q1.296875 -1.25 3.234375 -1.25zm5.8204346 -4.25q0.4375 0 0.75 0.3125q0.3125 0.296875 0.3125 0.75q0 0.46875 -0.296875 0.765625q-0.296875 0.296875 -0.765625 0.296875q-0.46875 0 -0.765625 -0.296875q-0.296875 -0.296875 -0.296875 -0.765625q0 -0.453125 0.3125 -0.75q0.328125 -0.3125 0.75 -0.3125zm0.734375 4.46875l0 8.734375l-1.453125 0l0 -8.734375l1.453125 0zm6.2431335 -0.21875q1.90625 0 2.765625 0.90625q0.875 0.890625 0.890625 2.6875l0 3.921875q0 0.5625 0.140625 1.4375l-1.40625 0q-0.09375 -0.171875 -0.09375 -1.3125l-0.03125 0q-1.0 1.5 -2.875 1.53125q-1.4375 0 -2.34375 -0.71875q-0.90625 -0.71875 -0.90625 -1.875q0 -1.578125 1.296875 -2.3125q1.3125 -0.734375 4.09375 -0.734375l0.671875 0l0 -0.25q0 -1.90625 -2.15625 -1.9375q-1.578125 0 -2.59375 0.953125l-0.921875 -0.953125q1.34375 -1.3125 3.46875 -1.34375zm-2.296875 6.4375q0 1.46875 1.921875 1.515625q1.140625 0 1.859375 -0.734375q0.71875 -0.734375 0.71875 -2.125l0 -0.34375l-1.609375 0q-1.28125 0 -2.078125 0.421875q-0.78125 0.40625 -0.8125 1.265625zm15.259659 -6.21875l0 5.296875q0 1.015625 0.46875 1.65625q0.484375 0.640625 1.53125 0.65625q1.34375 0 2.015625 -0.890625q0.6875 -0.890625 0.6875 -2.390625l0 -4.328125l1.46875 0l0 6.796875q0.015625 0.515625 0.0625 1.9375l-1.375 0q-0.015625 -0.890625 -0.03125 -1.4375l-0.046875 0q-0.328125 0.734375 -1.125 1.203125q-0.796875 0.453125 -1.796875 0.453125q-1.609375 -0.015625 -2.46875 -0.953125q-0.84375 -0.9375 -0.84375 -2.53125l0 -5.46875l1.453125 0zm11.122879 -2.484375l0 2.484375l2.578125 0l0 1.234375l-2.578125 0l0 4.671875q0 1.03125 0.328125 1.375q0.34375 0.328125 0.984375 0.328125q0.71875 0 1.28125 -0.296875l0.0625 1.328125q-0.75 0.3125 -1.703125 0.3125q-1.34375 0 -1.875 -0.65625q-0.53125 -0.65625 -0.53125 -2.171875l0 -4.890625l-1.90625 0l0 -1.234375l1.90625 0l0 -2.484375l1.453125 0zm8.348251 2.265625q1.9375 0 3.03125 1.21875q1.09375 1.21875 1.109375 3.46875l0 0.34375l-7.0625 0q0.125 1.21875 0.921875 2.0q0.796875 0.78125 1.953125 0.796875q1.78125 0 2.765625 -1.3125l1.09375 0.859375q-0.6875 0.890625 -1.625 1.34375q-0.921875 0.453125 -2.234375 0.453125q-1.984375 0 -3.203125 -1.296875q-1.21875 -1.296875 -1.234375 -3.28125q0 -1.984375 1.234375 -3.265625q1.25 -1.296875 3.25 -1.328125zm2.5625 3.796875q-0.046875 -1.125 -0.734375 -1.78125q-0.671875 -0.671875 -1.90625 -0.671875q-1.125 0 -1.890625 0.640625q-0.765625 0.625 -0.953125 1.8125l5.484375 0zm8.122879 -3.796875q1.640625 0 2.484375 0.953125q0.84375 0.953125 0.84375 2.53125l0 5.46875l-1.46875 0l0 -5.296875q0 -1.015625 -0.46875 -1.65625q-0.453125 -0.640625 -1.515625 -0.65625q-1.34375 0 -2.03125 0.890625q-0.6875 0.875 -0.6875 2.453125l0 4.265625l-1.453125 0l0 -6.796875q0 -0.09375 -0.0625 -1.9375l1.375 0q0.03125 1.3125 0.03125 1.4375l0.046875 0q0.34375 -0.75 1.140625 -1.203125q0.796875 -0.453125 1.765625 -0.453125zm8.279129 -2.265625l0 2.484375l2.578125 0l0 1.234375l-2.578125 0l0 4.671875q0 1.03125 0.328125 1.375q0.34375 0.328125 0.984375 0.328125q0.71875 0 1.28125 -0.296875l0.0625 1.328125q-0.75 0.3125 -1.703125 0.3125q-1.34375 0 -1.875 -0.65625q-0.53125 -0.65625 -0.53125 -2.171875l0 -4.890625l-1.90625 0l0 -1.234375l1.90625 0l0 -2.484375l1.453125 0zm8.348251 2.265625q1.9375 0 3.03125 1.21875q1.09375 1.21875 1.109375 3.46875l0 0.34375l-7.0625 0q0.125 1.21875 0.921875 2.0q0.796875 0.78125 1.953125 0.796875q1.78125 0 2.765625 -1.3125l1.09375 0.859375q-0.6875 0.890625 -1.625 1.34375q-0.921875 0.453125 -2.234375 0.453125q-1.984375 0 -3.203125 -1.296875q-1.21875 -1.296875 -1.234375 -3.28125q0 -1.984375 1.234375 -3.265625q1.25 -1.296875 3.25 -1.328125zm2.5625 3.796875q-0.046875 -1.125 -0.734375 -1.78125q-0.671875 -0.671875 -1.90625 -0.671875q-1.125 0 -1.890625 0.640625q-0.765625 0.625 -0.953125 1.8125l5.484375 0z" fill-rule="nonzero"/><path fill="#ff9900" d="m83.90945 368.02887l0 0c0 8.788727 28.498665 15.913391 63.65354 15.913391c35.154892 0 63.65355 -7.1246643 63.65355 -15.913391l0 98.188965c0 8.788727 -28.498657 15.913391 -63.65355 15.913391c-35.154877 0 -63.65354 -7.1246643 -63.65354 -15.913391z" fill-rule="evenodd"/><path fill="#ffc166" d="m83.90945 368.02887l0 0c0 -8.788727 28.498665 -15.913391 63.65354 -15.913391c35.154892 0 63.65355 7.1246643 63.65355 15.913391l0 0c0 8.788727 -28.498657 15.913391 -63.65355 15.913391c-35.154877 0 -63.65354 -7.1246643 -63.65354 -15.913391z" fill-rule="evenodd"/><path fill="#000000" fill-opacity="0.0" d="m211.21654 368.02887l0 0c0 8.788727 -28.498657 15.913391 -63.65355 15.913391c-35.154877 0 -63.65354 -7.1246643 -63.65354 -15.913391l0 0c0 -8.788727 28.498665 -15.913391 63.65354 -15.913391c35.154892 0 63.65355 7.1246643 63.65355 15.913391l0 98.188965c0 8.788727 -28.498657 15.913391 -63.65355 15.913391c-35.154877 0 -63.65354 -7.1246643 -63.65354 -15.913391l0 -98.188965" fill-rule="evenodd"/><path fill="#000000" d="m139.14647 406.8907l0 14.109375l-1.234375 0l0 -1.453125l-0.046875 0q-0.546875 0.796875 -1.484375 1.234375q-0.9375 0.4375 -1.90625 0.4375q-2.03125 0 -3.34375 -1.3125q-1.296875 -1.328125 -1.296875 -3.265625q0 -1.953125 1.296875 -3.265625q1.3125 -1.328125 3.34375 -1.328125q1.015625 0 1.9375 0.453125q0.921875 0.4375 1.453125 1.21875l0.046875 0l0 -6.828125l1.234375 0zm-7.96875 9.75q0 1.546875 0.921875 2.515625q0.9375 0.953125 2.375 0.953125q1.5 0 2.484375 -1.0q1.0 -1.015625 1.0 -2.46875q0 -1.46875 -1.0 -2.46875q-0.984375 -1.0 -2.5 -1.0q-1.421875 0 -2.359375 0.984375q-0.921875 0.96875 -0.921875 2.484375zm14.273972 -4.59375q1.5 0 2.34375 0.84375q0.859375 0.828125 0.859375 2.203125l0 4.046875q0 0.859375 0.15625 1.859375l-1.203125 0q-0.109375 -0.578125 -0.109375 -1.421875l-0.03125 0q-0.546875 0.859375 -1.28125 1.25q-0.734375 0.390625 -1.796875 0.390625q-1.34375 0 -2.1875 -0.703125q-0.828125 -0.703125 -0.828125 -1.84375q0 -1.578125 1.3125 -2.296875q1.328125 -0.734375 4.171875 -0.734375l0.5625 0l0 -0.1875q0 -1.1875 -0.546875 -1.734375q-0.546875 -0.546875 -1.6875 -0.546875q-1.53125 0 -2.671875 1.015625l-0.75 -0.875q1.234375 -1.265625 3.6875 -1.265625zm-2.734375 6.453125q0 0.75 0.5625 1.1875q0.578125 0.421875 1.5 0.421875q1.1875 0 1.90625 -0.734375q0.734375 -0.75 0.734375 -2.25l0 -0.46875l-0.859375 0q-1.75 0 -2.796875 0.453125q-1.046875 0.4375 -1.046875 1.390625zm10.791977 -8.6875l0 2.453125l2.515625 0l0 1.125l-2.515625 0l0 5.21875q0 0.71875 0.265625 1.109375q0.265625 0.390625 1.0 0.390625q0.640625 0 1.265625 -0.34375l0.0625 1.140625q-0.734375 0.3125 -1.671875 0.3125q-1.015625 0 -1.59375 -0.59375q-0.5625 -0.59375 -0.5625 -1.65625l0 -5.578125l-1.84375 0l0 -1.125l1.84375 0l0 -2.453125l1.234375 0zm7.818878 2.234375q1.5 0 2.34375 0.84375q0.859375 0.828125 0.859375 2.203125l0 4.046875q0 0.859375 0.15625 1.859375l-1.203125 0q-0.109375 -0.578125 -0.109375 -1.421875l-0.03125 0q-0.546875 0.859375 -1.28125 1.25q-0.734375 0.390625 -1.796875 0.390625q-1.34375 0 -2.1875 -0.703125q-0.828125 -0.703125 -0.828125 -1.84375q0 -1.578125 1.3125 -2.296875q1.328125 -0.734375 4.171875 -0.734375l0.5625 0l0 -0.1875q0 -1.1875 -0.546875 -1.734375q-0.546875 -0.546875 -1.6875 -0.546875q-1.53125 0 -2.671875 1.015625l-0.75 -0.875q1.234375 -1.265625 3.6875 -1.265625zm-2.734375 6.453125q0 0.75 0.5625 1.1875q0.578125 0.421875 1.5 0.421875q1.1875 0 1.90625 -0.734375q0.734375 -0.75 0.734375 -2.25l0 -0.46875l-0.859375 0q-1.75 0 -2.796875 0.453125q-1.046875 0.4375 -1.046875 1.390625z" fill-rule="nonzero"/><path fill="#000000" d="m130.44011 428.8907l0 6.828125l0.03125 0q0.546875 -0.78125 1.46875 -1.21875q0.921875 -0.453125 1.921875 -0.453125q2.046875 0 3.34375 1.3125q1.3125 1.296875 1.3125 3.28125q0 1.984375 -1.328125 3.28125q-1.3125 1.296875 -3.328125 1.296875q-0.984375 0 -1.921875 -0.4375q-0.921875 -0.453125 -1.46875 -1.234375l-0.03125 0l0 1.453125l-1.234375 0l0 -14.109375l1.234375 0zm-0.0625 9.75q0 1.453125 1.0 2.46875q1.0 1.0 2.484375 1.0q1.484375 0 2.390625 -0.984375q0.921875 -0.984375 0.921875 -2.484375q0 -1.546875 -0.953125 -2.5q-0.9375 -0.96875 -2.375 -0.96875q-1.484375 0 -2.484375 1.0q-0.984375 1.0 -0.984375 2.46875zm13.852097 -4.59375q1.5 0 2.34375 0.84375q0.859375 0.828125 0.859375 2.203125l0 4.046875q0 0.859375 0.15625 1.859375l-1.203125 0q-0.109375 -0.578125 -0.109375 -1.421875l-0.03125 0q-0.546875 0.859375 -1.28125 1.25q-0.734375 0.390625 -1.796875 0.390625q-1.34375 0 -2.1875 -0.703125q-0.828125 -0.703125 -0.828125 -1.84375q0 -1.578125 1.3125 -2.296875q1.328125 -0.734375 4.171875 -0.734375l0.5625 0l0 -0.1875q0 -1.1875 -0.546875 -1.734375q-0.546875 -0.546875 -1.6875 -0.546875q-1.53125 0 -2.671875 1.015625l-0.75 -0.875q1.234375 -1.265625 3.6875 -1.265625zm-2.734375 6.453125q0 0.75 0.5625 1.1875q0.578125 0.421875 1.5 0.421875q1.1875 0 1.90625 -0.734375q0.734375 -0.75 0.734375 -2.25l0 -0.46875l-0.859375 0q-1.75 0 -2.796875 0.453125q-1.046875 0.4375 -1.046875 1.390625zm11.604477 -6.453125q2.171875 0 2.921875 1.5625l-1.109375 0.734375q-0.609375 -1.171875 -1.890625 -1.171875q-0.78125 0 -1.296875 0.359375q-0.5 0.34375 -0.5 0.9375q0 0.578125 0.40625 0.890625q0.40625 0.3125 1.609375 0.5625q1.578125 0.34375 2.109375 0.765625q0.546875 0.40625 0.75 0.921875q0.21875 0.5 0.21875 0.921875q0 1.25 -0.9375 1.96875q-0.9375 0.71875 -2.46875 0.71875q-2.21875 0 -3.359375 -1.6875l1.0625 -0.734375q0.859375 1.3125 2.296875 1.3125q0.921875 0 1.484375 -0.40625q0.578125 -0.40625 0.578125 -1.09375q0 -0.5625 -0.484375 -0.90625q-0.484375 -0.34375 -1.875 -0.625q-2.734375 -0.53125 -2.734375 -2.40625q0 -1.1875 0.890625 -1.90625q0.890625 -0.71875 2.328125 -0.71875zm9.072571 0q1.921875 0 3.0625 1.265625q1.140625 1.25 1.140625 3.28125l0 0.375l-7.28125 0q0.140625 1.359375 1.03125 2.25q0.90625 0.890625 2.171875 0.890625q0.84375 0 1.59375 -0.40625q0.765625 -0.40625 1.203125 -1.109375l0.953125 0.78125q-1.484375 1.84375 -3.75 1.84375q-1.9375 0 -3.234375 -1.296875q-1.28125 -1.3125 -1.28125 -3.28125q0 -1.921875 1.265625 -3.25q1.28125 -1.34375 3.125 -1.34375zm2.859375 3.921875q0 -1.296875 -0.78125 -2.046875q-0.78125 -0.75 -2.0625 -0.75q-1.140625 0 -2.078125 0.828125q-0.9375 0.828125 -0.984375 1.96875l5.90625 0z" fill-rule="nonzero"/><path fill="#000000" fill-opacity="0.0" d="m408.04593 124.17979l0 0c0 -31.31063 25.382294 -56.69291 56.6929 -56.69291l0 0c15.035919 0 29.455963 5.9729843 40.08795 16.604973c10.632019 10.631981 16.60498 25.052048 16.60498 40.087936l0 0c0 31.31063 -25.382294 56.69291 -56.692932 56.69291l0 0c-31.310608 0 -56.6929 -25.382278 -56.6929 -56.69291z" fill-rule="evenodd"/><path fill="#b6d7a8" d="m417.49475 124.17979l0 0c0 -26.092186 21.151917 -47.244095 47.24408 -47.244095l0 0c12.529938 0 24.546661 4.9774933 33.406647 13.837479c8.859985 8.859985 13.837463 20.876709 13.837463 33.406616l0 0c0 26.092201 -21.151917 47.244102 -47.24411 47.244102l0 0c-26.092163 0 -47.24408 -21.151901 -47.24408 -47.244102z" fill-rule="evenodd"/><path fill="#000000" d="m449.54703 112.85229q1.78125 0 2.390625 1.5625q0.328125 -0.734375 1.015625 -1.140625q0.6875 -0.421875 1.453125 -0.421875q1.390625 0 2.09375 0.765625q0.703125 0.75 0.703125 2.109375l0 4.8125l-1.046875 0l0 -4.453125q0 -1.15625 -0.4375 -1.703125q-0.4375 -0.5625 -1.453125 -0.5625q-1.03125 0 -1.578125 0.75q-0.53125 0.734375 -0.53125 1.921875l0 4.046875l-1.0625 0l0 -4.453125q0 -1.15625 -0.4375 -1.703125q-0.421875 -0.5625 -1.421875 -0.5625q-0.953125 0 -1.546875 0.78125q-0.59375 0.78125 -0.59375 2.125l0 3.8125l-1.046875 0l0 -5.921875q0 -0.890625 -0.078125 -1.5625l1.125 0l0 1.125l0.03125 0q0.359375 -0.578125 1.03125 -0.953125q0.671875 -0.375 1.390625 -0.375zm10.897675 -3.453125q0.296875 0 0.53125 0.234375q0.234375 0.234375 0.234375 0.53125q0 0.328125 -0.234375 0.5625q-0.234375 0.21875 -0.53125 0.21875q-0.296875 0 -0.53125 -0.21875q-0.234375 -0.234375 -0.234375 -0.5625q0 -0.3125 0.234375 -0.53125q0.234375 -0.234375 0.53125 -0.234375zm0.53125 3.65625l0 7.484375l-1.0625 0l0 -7.484375l1.0625 0zm6.0587463 -0.203125q1.703125 0 2.796875 1.296875l-0.859375 0.65625q-0.6875 -0.984375 -1.90625 -0.984375q-1.25 0 -2.015625 0.828125q-0.765625 0.828125 -0.765625 2.140625q0 1.34375 0.765625 2.171875q0.765625 0.8125 1.96875 0.8125q1.28125 0 1.953125 -1.0l0.859375 0.65625q-1.0625 1.296875 -2.828125 1.296875q-1.734375 0 -2.8125 -1.109375q-1.0625 -1.125 -1.0625 -2.828125q0 -1.71875 1.078125 -2.828125q1.09375 -1.109375 2.828125 -1.109375zm7.712036 0q0.421875 0 0.78125 0.109375l-0.203125 1.03125q-0.171875 -0.078125 -0.59375 -0.078125q-1.015625 0 -1.6875 0.703125q-0.65625 0.6875 -0.65625 1.765625l0 4.15625l-1.046875 0l0 -5.203125q-0.015625 -1.34375 -0.0625 -2.28125l1.03125 0l0 1.390625l0.03125 0q0.625 -1.59375 2.40625 -1.59375zm5.0865173 0q1.703125 0 2.84375 1.109375q1.140625 1.109375 1.140625 2.828125q0 1.703125 -1.109375 2.828125q-1.109375 1.109375 -2.875 1.109375q-1.71875 0 -2.84375 -1.109375q-1.125 -1.125 -1.125 -2.828125q0 -1.65625 1.125 -2.796875q1.125 -1.140625 2.84375 -1.140625zm-2.8125 3.9375q0 1.296875 0.765625 2.140625q0.78125 0.84375 2.046875 0.84375q1.28125 0 2.046875 -0.859375q0.78125 -0.859375 0.78125 -2.125q0 -1.328125 -0.796875 -2.140625q-0.796875 -0.828125 -2.046875 -0.828125q-1.265625 0 -2.03125 0.859375q-0.765625 0.84375 -0.765625 2.109375z" fill-rule="nonzero"/><path fill="#000000" d="m441.94128 131.8523q1.859375 0 2.5 1.34375l-0.9375 0.625q-0.53125 -1.0 -1.625 -1.0q-0.671875 0 -1.109375 0.3125q-0.4375 0.296875 -0.4375 0.8125q0 0.484375 0.34375 0.75q0.359375 0.265625 1.390625 0.484375q1.359375 0.296875 1.8125 0.65625q0.46875 0.359375 0.640625 0.796875q0.171875 0.421875 0.171875 0.796875q0 1.0625 -0.796875 1.6875q-0.796875 0.609375 -2.109375 0.609375q-1.90625 0 -2.875 -1.453125l0.90625 -0.625q0.734375 1.125 1.96875 1.125q0.78125 0 1.265625 -0.34375q0.5 -0.34375 0.5 -0.9375q0 -0.484375 -0.421875 -0.78125q-0.40625 -0.296875 -1.59375 -0.53125q-2.359375 -0.46875 -2.359375 -2.0625q0 -1.03125 0.765625 -1.640625q0.78125 -0.625 2.0 -0.625zm7.7847595 0q1.640625 0 2.609375 1.09375q0.984375 1.078125 0.984375 2.8125l0 0.328125l-6.234375 0q0.125 1.171875 0.890625 1.9375q0.765625 0.75 1.859375 0.75q0.71875 0 1.359375 -0.34375q0.65625 -0.34375 1.046875 -0.953125l0.8125 0.671875q-1.28125 1.578125 -3.21875 1.578125q-1.671875 0 -2.78125 -1.109375q-1.09375 -1.125 -1.09375 -2.828125q0 -1.640625 1.078125 -2.78125q1.09375 -1.15625 2.6875 -1.15625zm2.4375 3.375q0 -1.109375 -0.671875 -1.75q-0.65625 -0.65625 -1.75 -0.65625q-0.984375 0 -1.796875 0.71875q-0.796875 0.703125 -0.828125 1.6875l5.046875 0zm6.5991516 -3.375q0.421875 0 0.78125 0.109375l-0.203125 1.03125q-0.171875 -0.078125 -0.59375 -0.078125q-1.015625 0 -1.6875 0.703125q-0.65625 0.6875 -0.65625 1.765625l0 4.15625l-1.046875 0l0 -5.203125q-0.015625 -1.34375 -0.0625 -2.28125l1.03125 0l0 1.390625l0.03125 0q0.625 -1.59375 2.40625 -1.59375zm2.1245117 0.203125l2.40625 6.328125l2.390625 -6.328125l1.203125 0l-3.03125 7.484375l-1.1875 0l-3.046875 -7.484375l1.265625 0zm8.149506 -3.65625q0.296875 0 0.53125 0.234375q0.234375 0.234375 0.234375 0.53125q0 0.328125 -0.234375 0.5625q-0.234375 0.21875 -0.53125 0.21875q-0.296875 0 -0.53125 -0.21875q-0.234375 -0.234375 -0.234375 -0.5625q0 -0.3125 0.234375 -0.53125q0.234375 -0.234375 0.53125 -0.234375zm0.53125 3.65625l0 7.484375l-1.0625 0l0 -7.484375l1.0625 0zm7.668152 0l0 0.765625l-4.375 5.765625l4.546875 0l0 0.953125l-6.078125 0l0 -0.765625l4.375 -5.765625l-4.15625 0l0 -0.953125l5.6875 0zm2.4566345 -3.65625q0.296875 0 0.53125 0.234375q0.234375 0.234375 0.234375 0.53125q0 0.328125 -0.234375 0.5625q-0.234375 0.21875 -0.53125 0.21875q-0.296875 0 -0.53125 -0.21875q-0.234375 -0.234375 -0.234375 -0.5625q0 -0.3125 0.234375 -0.53125q0.234375 -0.234375 0.53125 -0.234375zm0.53125 3.65625l0 7.484375l-1.0625 0l0 -7.484375l1.0625 0zm6.1212463 -0.203125q1.703125 0 2.84375 1.109375q1.140625 1.109375 1.140625 2.828125q0 1.703125 -1.109375 2.828125q-1.109375 1.109375 -2.875 1.109375q-1.71875 0 -2.84375 -1.109375q-1.125 -1.125 -1.125 -2.828125q0 -1.65625 1.125 -2.796875q1.125 -1.140625 2.84375 -1.140625zm-2.8125 3.9375q0 1.296875 0.765625 2.140625q0.78125 0.84375 2.046875 0.84375q1.28125 0 2.046875 -0.859375q0.78125 -0.859375 0.78125 -2.125q0 -1.328125 -0.796875 -2.140625q-0.796875 -0.828125 -2.046875 -0.828125q-1.265625 0 -2.03125 0.859375q-0.765625 0.84375 -0.765625 2.109375z" fill-rule="nonzero"/><path fill="#ff9900" d="m498.0236 401.1076l0 0c0 6.3926086 26.27774 11.574799 58.6929 11.574799c32.415222 0 58.692932 -5.18219 58.692932 -11.574799l0 69.44882c0 6.392578 -26.27771 11.574799 -58.692932 11.574799c-32.41516 0 -58.6929 -5.1822205 -58.6929 -11.574799z" fill-rule="evenodd"/><path fill="#ffc166" d="m498.0236 401.1076l0 0c0 -6.392578 26.27774 -11.574799 58.6929 -11.574799c32.415222 0 58.692932 5.1822205 58.692932 11.574799l0 0c0 6.3926086 -26.27771 11.574799 -58.692932 11.574799c-32.41516 0 -58.6929 -5.18219 -58.6929 -11.574799z" fill-rule="evenodd"/><path fill="#000000" fill-opacity="0.0" d="m615.4094 401.1076l0 0c0 6.3926086 -26.27771 11.574799 -58.692932 11.574799c-32.41516 0 -58.6929 -5.18219 -58.6929 -11.574799l0 0c0 -6.392578 26.27774 -11.574799 58.6929 -11.574799c32.415222 0 58.692932 5.1822205 58.692932 11.574799l0 69.44882c0 6.392578 -26.27771 11.574799 -58.692932 11.574799c-32.41516 0 -58.6929 -5.1822205 -58.6929 -11.574799l0 -69.44882" fill-rule="evenodd"/><path fill="#000000" d="m548.3 423.43005l0 14.109375l-1.234375 0l0 -1.453125l-0.046875 0q-0.546875 0.796875 -1.484375 1.234375q-0.9375 0.4375 -1.90625 0.4375q-2.03125 0 -3.34375 -1.3125q-1.296875 -1.328125 -1.296875 -3.265625q0 -1.953125 1.296875 -3.265625q1.3125 -1.328125 3.34375 -1.328125q1.015625 0 1.9375 0.453125q0.921875 0.4375 1.453125 1.21875l0.046875 0l0 -6.828125l1.234375 0zm-7.96875 9.75q0 1.546875 0.921875 2.515625q0.9375 0.953125 2.375 0.953125q1.5 0 2.484375 -1.0q1.0 -1.015625 1.0 -2.46875q0 -1.46875 -1.0 -2.46875q-0.984375 -1.0 -2.5 -1.0q-1.421875 0 -2.359375 0.984375q-0.921875 0.96875 -0.921875 2.484375zm14.273987 -4.59375q1.5 0 2.34375 0.84375q0.859375 0.828125 0.859375 2.203125l0 4.046875q0 0.859375 0.15625 1.859375l-1.203125 0q-0.109375 -0.578125 -0.109375 -1.421875l-0.03125 0q-0.546875 0.859375 -1.28125 1.25q-0.734375 0.390625 -1.796875 0.390625q-1.34375 0 -2.1875 -0.703125q-0.828125 -0.703125 -0.828125 -1.84375q0 -1.578125 1.3125 -2.296875q1.328125 -0.734375 4.171875 -0.734375l0.5625 0l0 -0.1875q0 -1.1875 -0.546875 -1.734375q-0.546875 -0.546875 -1.6875 -0.546875q-1.53125 0 -2.671875 1.015625l-0.75 -0.875q1.234375 -1.265625 3.6875 -1.265625zm-2.734375 6.453125q0 0.75 0.5625 1.1875q0.578125 0.421875 1.5 0.421875q1.1875 0 1.90625 -0.734375q0.734375 -0.75 0.734375 -2.25l0 -0.46875l-0.859375 0q-1.75 0 -2.796875 0.453125q-1.046875 0.4375 -1.046875 1.390625zm10.791931 -8.6875l0 2.453125l2.515625 0l0 1.125l-2.515625 0l0 5.21875q0 0.71875 0.265625 1.109375q0.265625 0.390625 1.0 0.390625q0.640625 0 1.265625 -0.34375l0.0625 1.140625q-0.734375 0.3125 -1.671875 0.3125q-1.015625 0 -1.59375 -0.59375q-0.5625 -0.59375 -0.5625 -1.65625l0 -5.578125l-1.84375 0l0 -1.125l1.84375 0l0 -2.453125l1.234375 0zm7.8189087 2.234375q1.5 0 2.34375 0.84375q0.859375 0.828125 0.859375 2.203125l0 4.046875q0 0.859375 0.15625 1.859375l-1.203125 0q-0.109375 -0.578125 -0.109375 -1.421875l-0.03125 0q-0.546875 0.859375 -1.28125 1.25q-0.734375 0.390625 -1.796875 0.390625q-1.34375 0 -2.1875 -0.703125q-0.828125 -0.703125 -0.828125 -1.84375q0 -1.578125 1.3125 -2.296875q1.328125 -0.734375 4.171875 -0.734375l0.5625 0l0 -0.1875q0 -1.1875 -0.546875 -1.734375q-0.546875 -0.546875 -1.6875 -0.546875q-1.53125 0 -2.671875 1.015625l-0.75 -0.875q1.234375 -1.265625 3.6875 -1.265625zm-2.734375 6.453125q0 0.75 0.5625 1.1875q0.578125 0.421875 1.5 0.421875q1.1875 0 1.90625 -0.734375q0.734375 -0.75 0.734375 -2.25l0 -0.46875l-0.859375 0q-1.75 0 -2.796875 0.453125q-1.046875 0.4375 -1.046875 1.390625z" fill-rule="nonzero"/><path fill="#000000" d="m539.5936 445.43005l0 6.828125l0.03125 0q0.546875 -0.78125 1.46875 -1.21875q0.921875 -0.453125 1.921875 -0.453125q2.046875 0 3.34375 1.3125q1.3125 1.296875 1.3125 3.28125q0 1.984375 -1.328125 3.28125q-1.3125 1.296875 -3.328125 1.296875q-0.984375 0 -1.921875 -0.4375q-0.921875 -0.453125 -1.46875 -1.234375l-0.03125 0l0 1.453125l-1.234375 0l0 -14.109375l1.234375 0zm-0.0625 9.75q0 1.453125 1.0 2.46875q1.0 1.0 2.484375 1.0q1.484375 0 2.390625 -0.984375q0.921875 -0.984375 0.921875 -2.484375q0 -1.546875 -0.953125 -2.5q-0.9375 -0.96875 -2.375 -0.96875q-1.484375 0 -2.484375 1.0q-0.984375 1.0 -0.984375 2.46875zm13.852112 -4.59375q1.5 0 2.34375 0.84375q0.859375 0.828125 0.859375 2.203125l0 4.046875q0 0.859375 0.15625 1.859375l-1.203125 0q-0.109375 -0.578125 -0.109375 -1.421875l-0.03125 0q-0.546875 0.859375 -1.28125 1.25q-0.734375 0.390625 -1.796875 0.390625q-1.34375 0 -2.1875 -0.703125q-0.828125 -0.703125 -0.828125 -1.84375q0 -1.578125 1.3125 -2.296875q1.328125 -0.734375 4.171875 -0.734375l0.5625 0l0 -0.1875q0 -1.1875 -0.546875 -1.734375q-0.546875 -0.546875 -1.6875 -0.546875q-1.53125 0 -2.671875 1.015625l-0.75 -0.875q1.234375 -1.265625 3.6875 -1.265625zm-2.734375 6.453125q0 0.75 0.5625 1.1875q0.578125 0.421875 1.5 0.421875q1.1875 0 1.90625 -0.734375q0.734375 -0.75 0.734375 -2.25l0 -0.46875l-0.859375 0q-1.75 0 -2.796875 0.453125q-1.046875 0.4375 -1.046875 1.390625zm11.604431 -6.453125q2.171875 0 2.921875 1.5625l-1.109375 0.734375q-0.609375 -1.171875 -1.890625 -1.171875q-0.78125 0 -1.296875 0.359375q-0.5 0.34375 -0.5 0.9375q0 0.578125 0.40625 0.890625q0.40625 0.3125 1.609375 0.5625q1.578125 0.34375 2.109375 0.765625q0.546875 0.40625 0.75 0.921875q0.21875 0.5 0.21875 0.921875q0 1.25 -0.9375 1.96875q-0.9375 0.71875 -2.46875 0.71875q-2.21875 0 -3.359375 -1.6875l1.0625 -0.734375q0.859375 1.3125 2.296875 1.3125q0.921875 0 1.484375 -0.40625q0.578125 -0.40625 0.578125 -1.09375q0 -0.5625 -0.484375 -0.90625q-0.484375 -0.34375 -1.875 -0.625q-2.734375 -0.53125 -2.734375 -2.40625q0 -1.1875 0.890625 -1.90625q0.890625 -0.71875 2.328125 -0.71875zm9.072571 0q1.921875 0 3.0625 1.265625q1.140625 1.25 1.140625 3.28125l0 0.375l-7.28125 0q0.140625 1.359375 1.03125 2.25q0.90625 0.890625 2.171875 0.890625q0.84375 0 1.59375 -0.40625q0.765625 -0.40625 1.203125 -1.109375l0.953125 0.78125q-1.484375 1.84375 -3.75 1.84375q-1.9375 0 -3.234375 -1.296875q-1.28125 -1.3125 -1.28125 -3.28125q0 -1.921875 1.265625 -3.25q1.28125 -1.34375 3.125 -1.34375zm2.859375 3.921875q0 -1.296875 -0.78125 -2.046875q-0.78125 -0.75 -2.0625 -0.75q-1.140625 0 -2.078125 0.828125q-0.9375 0.828125 -0.984375 1.96875l5.90625 0z" fill-rule="nonzero"/><path fill="#ff9900" d="m785.03546 400.59186l0 0c0 6.1077576 19.805176 11.0590515 44.236206 11.0590515c24.43097 0 44.236206 -4.951294 44.236206 -11.0590515l0 70.480316c0 6.1077576 -19.805237 11.0590515 -44.236206 11.0590515c-24.43103 0 -44.236206 -4.951294 -44.236206 -11.0590515z" fill-rule="evenodd"/><path fill="#ffc166" d="m785.03546 400.59186l0 0c0 -6.107727 19.805176 -11.0590515 44.236206 -11.0590515c24.43097 0 44.236206 4.9513245 44.236206 11.0590515l0 0c0 6.1077576 -19.805237 11.0590515 -44.236206 11.0590515c-24.43103 0 -44.236206 -4.951294 -44.236206 -11.0590515z" fill-rule="evenodd"/><path fill="#000000" fill-opacity="0.0" d="m873.5079 400.59186l0 0c0 6.1077576 -19.805237 11.0590515 -44.236206 11.0590515c-24.43103 0 -44.236206 -4.951294 -44.236206 -11.0590515l0 0c0 -6.107727 19.805176 -11.0590515 44.236206 -11.0590515c24.43097 0 44.236206 4.9513245 44.236206 11.0590515l0 70.480316c0 6.1077576 -19.805237 11.0590515 -44.236206 11.0590515c-24.43103 0 -44.236206 -4.951294 -44.236206 -11.0590515l0 -70.480316" fill-rule="evenodd"/><path fill="#000000" d="m820.8551 423.17218l0 14.109375l-1.234375 0l0 -1.453125l-0.046875 0q-0.546875 0.796875 -1.484375 1.234375q-0.9375 0.4375 -1.90625 0.4375q-2.03125 0 -3.34375 -1.3125q-1.296875 -1.328125 -1.296875 -3.265625q0 -1.953125 1.296875 -3.265625q1.3125 -1.328125 3.34375 -1.328125q1.015625 0 1.9375 0.453125q0.921875 0.4375 1.453125 1.21875l0.046875 0l0 -6.828125l1.234375 0zm-7.96875 9.75q0 1.546875 0.921875 2.515625q0.9375 0.953125 2.375 0.953125q1.5 0 2.484375 -1.0q1.0 -1.015625 1.0 -2.46875q0 -1.46875 -1.0 -2.46875q-0.984375 -1.0 -2.5 -1.0q-1.421875 0 -2.359375 0.984375q-0.921875 0.96875 -0.921875 2.484375zm14.273987 -4.59375q1.5 0 2.34375 0.84375q0.859375 0.828125 0.859375 2.203125l0 4.046875q0 0.859375 0.15625 1.859375l-1.203125 0q-0.109375 -0.578125 -0.109375 -1.421875l-0.03125 0q-0.546875 0.859375 -1.28125 1.25q-0.734375 0.390625 -1.796875 0.390625q-1.34375 0 -2.1875 -0.703125q-0.828125 -0.703125 -0.828125 -1.84375q0 -1.578125 1.3125 -2.296875q1.328125 -0.734375 4.171875 -0.734375l0.5625 0l0 -0.1875q0 -1.1875 -0.546875 -1.734375q-0.546875 -0.546875 -1.6875 -0.546875q-1.53125 0 -2.671875 1.015625l-0.75 -0.875q1.234375 -1.265625 3.6875 -1.265625zm-2.734375 6.453125q0 0.75 0.5625 1.1875q0.578125 0.421875 1.5 0.421875q1.1875 0 1.90625 -0.734375q0.734375 -0.75 0.734375 -2.25l0 -0.46875l-0.859375 0q-1.75 0 -2.796875 0.453125q-1.046875 0.4375 -1.046875 1.390625zm10.791992 -8.6875l0 2.453125l2.515625 0l0 1.125l-2.515625 0l0 5.21875q0 0.71875 0.265625 1.109375q0.265625 0.390625 1.0 0.390625q0.640625 0 1.265625 -0.34375l0.0625 1.140625q-0.734375 0.3125 -1.671875 0.3125q-1.015625 0 -1.59375 -0.59375q-0.5625 -0.59375 -0.5625 -1.65625l0 -5.578125l-1.84375 0l0 -1.125l1.84375 0l0 -2.453125l1.234375 0zm7.8188477 2.234375q1.5 0 2.34375 0.84375q0.859375 0.828125 0.859375 2.203125l0 4.046875q0 0.859375 0.15625 1.859375l-1.203125 0q-0.109375 -0.578125 -0.109375 -1.421875l-0.03125 0q-0.546875 0.859375 -1.28125 1.25q-0.734375 0.390625 -1.796875 0.390625q-1.34375 0 -2.1875 -0.703125q-0.828125 -0.703125 -0.828125 -1.84375q0 -1.578125 1.3125 -2.296875q1.328125 -0.734375 4.171875 -0.734375l0.5625 0l0 -0.1875q0 -1.1875 -0.546875 -1.734375q-0.546875 -0.546875 -1.6875 -0.546875q-1.53125 0 -2.671875 1.015625l-0.75 -0.875q1.234375 -1.265625 3.6875 -1.265625zm-2.734375 6.453125q0 0.75 0.5625 1.1875q0.578125 0.421875 1.5 0.421875q1.1875 0 1.90625 -0.734375q0.734375 -0.75 0.734375 -2.25l0 -0.46875l-0.859375 0q-1.75 0 -2.796875 0.453125q-1.046875 0.4375 -1.046875 1.390625z" fill-rule="nonzero"/><path fill="#000000" d="m812.14874 445.17218l0 6.828125l0.03125 0q0.546875 -0.78125 1.46875 -1.21875q0.921875 -0.453125 1.921875 -0.453125q2.046875 0 3.34375 1.3125q1.3125 1.296875 1.3125 3.28125q0 1.984375 -1.328125 3.28125q-1.3125 1.296875 -3.328125 1.296875q-0.984375 0 -1.921875 -0.4375q-0.921875 -0.453125 -1.46875 -1.234375l-0.03125 0l0 1.453125l-1.234375 0l0 -14.109375l1.234375 0zm-0.0625 9.75q0 1.453125 1.0 2.46875q1.0 1.0 2.484375 1.0q1.484375 0 2.390625 -0.984375q0.921875 -0.984375 0.921875 -2.484375q0 -1.546875 -0.953125 -2.5q-0.9375 -0.96875 -2.375 -0.96875q-1.484375 0 -2.484375 1.0q-0.984375 1.0 -0.984375 2.46875zm13.852112 -4.59375q1.5 0 2.34375 0.84375q0.859375 0.828125 0.859375 2.203125l0 4.046875q0 0.859375 0.15625 1.859375l-1.203125 0q-0.109375 -0.578125 -0.109375 -1.421875l-0.03125 0q-0.546875 0.859375 -1.28125 1.25q-0.734375 0.390625 -1.796875 0.390625q-1.34375 0 -2.1875 -0.703125q-0.828125 -0.703125 -0.828125 -1.84375q0 -1.578125 1.3125 -2.296875q1.328125 -0.734375 4.171875 -0.734375l0.5625 0l0 -0.1875q0 -1.1875 -0.546875 -1.734375q-0.546875 -0.546875 -1.6875 -0.546875q-1.53125 0 -2.671875 1.015625l-0.75 -0.875q1.234375 -1.265625 3.6875 -1.265625zm-2.734375 6.453125q0 0.75 0.5625 1.1875q0.578125 0.421875 1.5 0.421875q1.1875 0 1.90625 -0.734375q0.734375 -0.75 0.734375 -2.25l0 -0.46875l-0.859375 0q-1.75 0 -2.796875 0.453125q-1.046875 0.4375 -1.046875 1.390625zm11.604492 -6.453125q2.171875 0 2.921875 1.5625l-1.109375 0.734375q-0.609375 -1.171875 -1.890625 -1.171875q-0.78125 0 -1.296875 0.359375q-0.5 0.34375 -0.5 0.9375q0 0.578125 0.40625 0.890625q0.40625 0.3125 1.609375 0.5625q1.578125 0.34375 2.109375 0.765625q0.546875 0.40625 0.75 0.921875q0.21875 0.5 0.21875 0.921875q0 1.25 -0.9375 1.96875q-0.9375 0.71875 -2.46875 0.71875q-2.21875 0 -3.359375 -1.6875l1.0625 -0.734375q0.859375 1.3125 2.296875 1.3125q0.921875 0 1.484375 -0.40625q0.578125 -0.40625 0.578125 -1.09375q0 -0.5625 -0.484375 -0.90625q-0.484375 -0.34375 -1.875 -0.625q-2.734375 -0.53125 -2.734375 -2.40625q0 -1.1875 0.890625 -1.90625q0.890625 -0.71875 2.328125 -0.71875zm9.072571 0q1.921875 0 3.0625 1.265625q1.140625 1.25 1.140625 3.28125l0 0.375l-7.28125 0q0.140625 1.359375 1.03125 2.25q0.90625 0.890625 2.171875 0.890625q0.84375 0 1.59375 -0.40625q0.765625 -0.40625 1.203125 -1.109375l0.953125 0.78125q-1.484375 1.84375 -3.75 1.84375q-1.9375 0 -3.234375 -1.296875q-1.28125 -1.3125 -1.28125 -3.28125q0 -1.921875 1.265625 -3.25q1.28125 -1.34375 3.125 -1.34375zm2.859375 3.921875q0 -1.296875 -0.78125 -2.046875q-0.78125 -0.75 -2.0625 -0.75q-1.140625 0 -2.078125 0.828125q-0.9375 0.828125 -0.984375 1.96875l5.90625 0z" fill-rule="nonzero"/><path fill="#000000" fill-opacity="0.0" d="m408.04462 284.23752l0 0c0 -31.310623 25.382294 -56.6929 56.6929 -56.6929l0 0c15.035919 0 29.455963 5.972992 40.08795 16.604965c10.631989 10.631989 16.60495 25.052048 16.60495 40.087936l0 0c0 31.310638 -25.382263 56.692932 -56.6929 56.692932l0 0c-31.310608 0 -56.6929 -25.382294 -56.6929 -56.692932z" fill-rule="evenodd"/><path fill="#b6d7a8" d="m417.49344 284.23752l0 0c0 -26.092194 21.151886 -47.24408 47.24408 -47.24408l0 0c12.529938 0 24.546661 4.9774933 33.406647 13.837479c8.859985 8.85997 13.837463 20.876694 13.837463 33.4066l0 0c0 26.092194 -21.151917 47.24411 -47.24411 47.24411l0 0c-26.092194 0 -47.24408 -21.151917 -47.24408 -47.24411z" fill-rule="evenodd"/><path fill="#000000" d="m449.54572 272.91003q1.78125 0 2.390625 1.5625q0.328125 -0.734375 1.015625 -1.140625q0.6875 -0.421875 1.453125 -0.421875q1.390625 0 2.09375 0.765625q0.703125 0.75 0.703125 2.109375l0 4.8125l-1.046875 0l0 -4.453125q0 -1.15625 -0.4375 -1.703125q-0.4375 -0.5625 -1.453125 -0.5625q-1.03125 0 -1.578125 0.75q-0.53125 0.734375 -0.53125 1.921875l0 4.046875l-1.0625 0l0 -4.453125q0 -1.15625 -0.4375 -1.703125q-0.421875 -0.5625 -1.421875 -0.5625q-0.953125 0 -1.546875 0.78125q-0.59375 0.78125 -0.59375 2.125l0 3.8125l-1.046875 0l0 -5.921875q0 -0.890625 -0.078125 -1.5625l1.125 0l0 1.125l0.03125 0q0.359375 -0.578125 1.03125 -0.953125q0.671875 -0.375 1.390625 -0.375zm10.897675 -3.453125q0.296875 0 0.53125 0.234375q0.234375 0.234375 0.234375 0.53125q0 0.328125 -0.234375 0.5625q-0.234375 0.21875 -0.53125 0.21875q-0.296875 0 -0.53125 -0.21875q-0.234375 -0.234375 -0.234375 -0.5625q0 -0.3125 0.234375 -0.53125q0.234375 -0.234375 0.53125 -0.234375zm0.53125 3.65625l0 7.484375l-1.0625 0l0 -7.484375l1.0625 0zm6.0587463 -0.203125q1.703125 0 2.796875 1.296875l-0.859375 0.65625q-0.6875 -0.984375 -1.90625 -0.984375q-1.25 0 -2.015625 0.828125q-0.765625 0.828125 -0.765625 2.140625q0 1.34375 0.765625 2.171875q0.765625 0.8125 1.96875 0.8125q1.28125 0 1.953125 -1.0l0.859375 0.65625q-1.0625 1.296875 -2.828125 1.296875q-1.734375 0 -2.8125 -1.109375q-1.0625 -1.125 -1.0625 -2.828125q0 -1.71875 1.078125 -2.828125q1.09375 -1.109375 2.828125 -1.109375zm7.712036 0q0.421875 0 0.78125 0.109375l-0.203125 1.03125q-0.171875 -0.078125 -0.59375 -0.078125q-1.015625 0 -1.6875 0.703125q-0.65625 0.6875 -0.65625 1.765625l0 4.15625l-1.046875 0l0 -5.203125q-0.015625 -1.34375 -0.0625 -2.28125l1.03125 0l0 1.390625l0.03125 0q0.625 -1.59375 2.40625 -1.59375zm5.0865173 0q1.703125 0 2.84375 1.109375q1.140625 1.109375 1.140625 2.828125q0 1.703125 -1.109375 2.828125q-1.109375 1.109375 -2.875 1.109375q-1.71875 0 -2.84375 -1.109375q-1.125 -1.125 -1.125 -2.828125q0 -1.65625 1.125 -2.796875q1.125 -1.140625 2.84375 -1.140625zm-2.8125 3.9375q0 1.296875 0.765625 2.140625q0.78125 0.84375 2.046875 0.84375q1.28125 0 2.046875 -0.859375q0.78125 -0.859375 0.78125 -2.125q0 -1.328125 -0.796875 -2.140625q-0.796875 -0.828125 -2.046875 -0.828125q-1.265625 0 -2.03125 0.859375q-0.765625 0.84375 -0.765625 2.109375z" fill-rule="nonzero"/><path fill="#000000" d="m441.93997 291.91003q1.859375 0 2.5 1.34375l-0.9375 0.625q-0.53125 -1.0 -1.625 -1.0q-0.671875 0 -1.109375 0.3125q-0.4375 0.296875 -0.4375 0.8125q0 0.484375 0.34375 0.75q0.359375 0.265625 1.390625 0.484375q1.359375 0.296875 1.8125 0.65625q0.46875 0.359375 0.640625 0.796875q0.171875 0.421875 0.171875 0.796875q0 1.0625 -0.796875 1.6875q-0.796875 0.609375 -2.109375 0.609375q-1.90625 0 -2.875 -1.453125l0.90625 -0.625q0.734375 1.125 1.96875 1.125q0.78125 0 1.265625 -0.34375q0.5 -0.34375 0.5 -0.9375q0 -0.484375 -0.421875 -0.78125q-0.40625 -0.296875 -1.59375 -0.53125q-2.359375 -0.46875 -2.359375 -2.0625q0 -1.03125 0.765625 -1.640625q0.78125 -0.625 2.0 -0.625zm7.7847595 0q1.640625 0 2.609375 1.09375q0.984375 1.078125 0.984375 2.8125l0 0.328125l-6.234375 0q0.125 1.171875 0.890625 1.9375q0.765625 0.75 1.859375 0.75q0.71875 0 1.359375 -0.34375q0.65625 -0.34375 1.046875 -0.953125l0.8125 0.671875q-1.28125 1.578125 -3.21875 1.578125q-1.671875 0 -2.78125 -1.109375q-1.09375 -1.125 -1.09375 -2.828125q0 -1.640625 1.078125 -2.78125q1.09375 -1.15625 2.6875 -1.15625zm2.4375 3.375q0 -1.109375 -0.671875 -1.75q-0.65625 -0.65625 -1.75 -0.65625q-0.984375 0 -1.796875 0.71875q-0.796875 0.703125 -0.828125 1.6875l5.046875 0zm6.5991516 -3.375q0.421875 0 0.78125 0.109375l-0.203125 1.03125q-0.171875 -0.078125 -0.59375 -0.078125q-1.015625 0 -1.6875 0.703125q-0.65625 0.6875 -0.65625 1.765625l0 4.15625l-1.046875 0l0 -5.203125q-0.015625 -1.34375 -0.0625 -2.28125l1.03125 0l0 1.390625l0.03125 0q0.625 -1.59375 2.40625 -1.59375zm2.1245117 0.203125l2.40625 6.328125l2.390625 -6.328125l1.203125 0l-3.03125 7.484375l-1.1875 0l-3.046875 -7.484375l1.265625 0zm8.149506 -3.65625q0.296875 0 0.53125 0.234375q0.234375 0.234375 0.234375 0.53125q0 0.328125 -0.234375 0.5625q-0.234375 0.21875 -0.53125 0.21875q-0.296875 0 -0.53125 -0.21875q-0.234375 -0.234375 -0.234375 -0.5625q0 -0.3125 0.234375 -0.53125q0.234375 -0.234375 0.53125 -0.234375zm0.53125 3.65625l0 7.484375l-1.0625 0l0 -7.484375l1.0625 0zm7.668152 0l0 0.765625l-4.375 5.765625l4.546875 0l0 0.953125l-6.078125 0l0 -0.765625l4.375 -5.765625l-4.15625 0l0 -0.953125l5.6875 0zm2.4566345 -3.65625q0.296875 0 0.53125 0.234375q0.234375 0.234375 0.234375 0.53125q0 0.328125 -0.234375 0.5625q-0.234375 0.21875 -0.53125 0.21875q-0.296875 0 -0.53125 -0.21875q-0.234375 -0.234375 -0.234375 -0.5625q0 -0.3125 0.234375 -0.53125q0.234375 -0.234375 0.53125 -0.234375zm0.53125 3.65625l0 7.484375l-1.0625 0l0 -7.484375l1.0625 0zm6.1212463 -0.203125q1.703125 0 2.84375 1.109375q1.140625 1.109375 1.140625 2.828125q0 1.703125 -1.109375 2.828125q-1.109375 1.109375 -2.875 1.109375q-1.71875 0 -2.84375 -1.109375q-1.125 -1.125 -1.125 -2.828125q0 -1.65625 1.125 -2.796875q1.125 -1.140625 2.84375 -1.140625zm-2.8125 3.9375q0 1.296875 0.765625 2.140625q0.78125 0.84375 2.046875 0.84375q1.28125 0 2.046875 -0.859375q0.78125 -0.859375 0.78125 -2.125q0 -1.328125 -0.796875 -2.140625q-0.796875 -0.828125 -2.046875 -0.828125q-1.265625 0 -2.03125 0.859375q-0.765625 0.84375 -0.765625 2.109375z" fill-rule="nonzero"/><path fill="#000000" fill-opacity="0.0" d="m590.31104 284.23752l0 0c0 -31.310623 25.382263 -56.6929 56.692932 -56.6929l0 0c15.035889 0 29.455933 5.972992 40.08789 16.604965c10.632019 10.631989 16.60498 25.052048 16.60498 40.087936l0 0c0 31.310638 -25.382263 56.692932 -56.69287 56.692932l0 0c-31.310669 0 -56.692932 -25.382294 -56.692932 -56.692932z" fill-rule="evenodd"/><path fill="#b6d7a8" d="m599.7598 284.23752l0 0c0 -26.092194 21.151917 -47.24408 47.24414 -47.24408l0 0c12.529907 0 24.54663 4.9774933 33.406616 13.837479c8.859985 8.85997 13.837463 20.876694 13.837463 33.4066l0 0c0 26.092194 -21.151917 47.24411 -47.24408 47.24411l0 0c-26.092224 0 -47.24414 -21.151917 -47.24414 -47.24411z" fill-rule="evenodd"/><path fill="#000000" d="m631.81213 272.91003q1.78125 0 2.390625 1.5625q0.328125 -0.734375 1.015625 -1.140625q0.6875 -0.421875 1.453125 -0.421875q1.390625 0 2.09375 0.765625q0.703125 0.75 0.703125 2.109375l0 4.8125l-1.046875 0l0 -4.453125q0 -1.15625 -0.4375 -1.703125q-0.4375 -0.5625 -1.453125 -0.5625q-1.03125 0 -1.578125 0.75q-0.53125 0.734375 -0.53125 1.921875l0 4.046875l-1.0625 0l0 -4.453125q0 -1.15625 -0.4375 -1.703125q-0.421875 -0.5625 -1.421875 -0.5625q-0.953125 0 -1.546875 0.78125q-0.59375 0.78125 -0.59375 2.125l0 3.8125l-1.046875 0l0 -5.921875q0 -0.890625 -0.078125 -1.5625l1.125 0l0 1.125l0.03125 0q0.359375 -0.578125 1.03125 -0.953125q0.671875 -0.375 1.390625 -0.375zm10.897644 -3.453125q0.296875 0 0.53125 0.234375q0.234375 0.234375 0.234375 0.53125q0 0.328125 -0.234375 0.5625q-0.234375 0.21875 -0.53125 0.21875q-0.296875 0 -0.53125 -0.21875q-0.234375 -0.234375 -0.234375 -0.5625q0 -0.3125 0.234375 -0.53125q0.234375 -0.234375 0.53125 -0.234375zm0.53125 3.65625l0 7.484375l-1.0625 0l0 -7.484375l1.0625 0zm6.058777 -0.203125q1.703125 0 2.796875 1.296875l-0.859375 0.65625q-0.6875 -0.984375 -1.90625 -0.984375q-1.25 0 -2.015625 0.828125q-0.765625 0.828125 -0.765625 2.140625q0 1.34375 0.765625 2.171875q0.765625 0.8125 1.96875 0.8125q1.28125 0 1.953125 -1.0l0.859375 0.65625q-1.0625 1.296875 -2.828125 1.296875q-1.734375 0 -2.8125 -1.109375q-1.0625 -1.125 -1.0625 -2.828125q0 -1.71875 1.078125 -2.828125q1.09375 -1.109375 2.828125 -1.109375zm7.712036 0q0.421875 0 0.78125 0.109375l-0.203125 1.03125q-0.171875 -0.078125 -0.59375 -0.078125q-1.015625 0 -1.6875 0.703125q-0.65625 0.6875 -0.65625 1.765625l0 4.15625l-1.046875 0l0 -5.203125q-0.015625 -1.34375 -0.0625 -2.28125l1.03125 0l0 1.390625l0.03125 0q0.625 -1.59375 2.40625 -1.59375zm5.086487 0q1.703125 0 2.84375 1.109375q1.140625 1.109375 1.140625 2.828125q0 1.703125 -1.109375 2.828125q-1.109375 1.109375 -2.875 1.109375q-1.71875 0 -2.84375 -1.109375q-1.125 -1.125 -1.125 -2.828125q0 -1.65625 1.125 -2.796875q1.125 -1.140625 2.84375 -1.140625zm-2.8125 3.9375q0 1.296875 0.765625 2.140625q0.78125 0.84375 2.046875 0.84375q1.28125 0 2.046875 -0.859375q0.78125 -0.859375 0.78125 -2.125q0 -1.328125 -0.796875 -2.140625q-0.796875 -0.828125 -2.046875 -0.828125q-1.265625 0 -2.03125 0.859375q-0.765625 0.84375 -0.765625 2.109375z" fill-rule="nonzero"/><path fill="#000000" d="m624.20636 291.91003q1.859375 0 2.5 1.34375l-0.9375 0.625q-0.53125 -1.0 -1.625 -1.0q-0.671875 0 -1.109375 0.3125q-0.4375 0.296875 -0.4375 0.8125q0 0.484375 0.34375 0.75q0.359375 0.265625 1.390625 0.484375q1.359375 0.296875 1.8125 0.65625q0.46875 0.359375 0.640625 0.796875q0.171875 0.421875 0.171875 0.796875q0 1.0625 -0.796875 1.6875q-0.796875 0.609375 -2.109375 0.609375q-1.90625 0 -2.875 -1.453125l0.90625 -0.625q0.734375 1.125 1.96875 1.125q0.78125 0 1.265625 -0.34375q0.5 -0.34375 0.5 -0.9375q0 -0.484375 -0.421875 -0.78125q-0.40625 -0.296875 -1.59375 -0.53125q-2.359375 -0.46875 -2.359375 -2.0625q0 -1.03125 0.765625 -1.640625q0.78125 -0.625 2.0 -0.625zm7.78479 0q1.640625 0 2.609375 1.09375q0.984375 1.078125 0.984375 2.8125l0 0.328125l-6.234375 0q0.125 1.171875 0.890625 1.9375q0.765625 0.75 1.859375 0.75q0.71875 0 1.359375 -0.34375q0.65625 -0.34375 1.046875 -0.953125l0.8125 0.671875q-1.28125 1.578125 -3.21875 1.578125q-1.671875 0 -2.78125 -1.109375q-1.09375 -1.125 -1.09375 -2.828125q0 -1.640625 1.078125 -2.78125q1.09375 -1.15625 2.6875 -1.15625zm2.4375 3.375q0 -1.109375 -0.671875 -1.75q-0.65625 -0.65625 -1.75 -0.65625q-0.984375 0 -1.796875 0.71875q-0.796875 0.703125 -0.828125 1.6875l5.046875 0zm6.599121 -3.375q0.421875 0 0.78125 0.109375l-0.203125 1.03125q-0.171875 -0.078125 -0.59375 -0.078125q-1.015625 0 -1.6875 0.703125q-0.65625 0.6875 -0.65625 1.765625l0 4.15625l-1.046875 0l0 -5.203125q-0.015625 -1.34375 -0.0625 -2.28125l1.03125 0l0 1.390625l0.03125 0q0.625 -1.59375 2.40625 -1.59375zm2.1245117 0.203125l2.40625 6.328125l2.390625 -6.328125l1.203125 0l-3.03125 7.484375l-1.1875 0l-3.046875 -7.484375l1.265625 0zm8.149536 -3.65625q0.296875 0 0.53125 0.234375q0.234375 0.234375 0.234375 0.53125q0 0.328125 -0.234375 0.5625q-0.234375 0.21875 -0.53125 0.21875q-0.296875 0 -0.53125 -0.21875q-0.234375 -0.234375 -0.234375 -0.5625q0 -0.3125 0.234375 -0.53125q0.234375 -0.234375 0.53125 -0.234375zm0.53125 3.65625l0 7.484375l-1.0625 0l0 -7.484375l1.0625 0zm7.668152 0l0 0.765625l-4.375 5.765625l4.546875 0l0 0.953125l-6.078125 0l0 -0.765625l4.375 -5.765625l-4.15625 0l0 -0.953125l5.6875 0zm2.456604 -3.65625q0.296875 0 0.53125 0.234375q0.234375 0.234375 0.234375 0.53125q0 0.328125 -0.234375 0.5625q-0.234375 0.21875 -0.53125 0.21875q-0.296875 0 -0.53125 -0.21875q-0.234375 -0.234375 -0.234375 -0.5625q0 -0.3125 0.234375 -0.53125q0.234375 -0.234375 0.53125 -0.234375zm0.53125 3.65625l0 7.484375l-1.0625 0l0 -7.484375l1.0625 0zm6.121277 -0.203125q1.703125 0 2.84375 1.109375q1.140625 1.109375 1.140625 2.828125q0 1.703125 -1.109375 2.828125q-1.109375 1.109375 -2.875 1.109375q-1.71875 0 -2.84375 -1.109375q-1.125 -1.125 -1.125 -2.828125q0 -1.65625 1.125 -2.796875q1.125 -1.140625 2.84375 -1.140625zm-2.8125 3.9375q0 1.296875 0.765625 2.140625q0.78125 0.84375 2.046875 0.84375q1.28125 0 2.046875 -0.859375q0.78125 -0.859375 0.78125 -2.125q0 -1.328125 -0.796875 -2.140625q-0.796875 -0.828125 -2.046875 -0.828125q-1.265625 0 -2.03125 0.859375q-0.765625 0.84375 -0.765625 2.109375z" fill-rule="nonzero"/><path fill="#000000" fill-opacity="0.0" d="m772.57745 284.23752l0 0c0 -31.310623 25.382263 -56.6929 56.69287 -56.6929l0 0c15.035889 0 29.455994 5.972992 40.08795 16.604965c10.632019 10.631989 16.60498 25.052048 16.60498 40.087936l0 0c0 31.310638 -25.382263 56.692932 -56.692932 56.692932l0 0c-31.310608 0 -56.69287 -25.382294 -56.69287 -56.692932z" fill-rule="evenodd"/><path fill="#b6d7a8" d="m782.02625 284.23752l0 0c0 -26.092194 21.151917 -47.24408 47.24408 -47.24408l0 0c12.529907 0 24.54663 4.9774933 33.406616 13.837479c8.859985 8.85997 13.837524 20.876694 13.837524 33.4066l0 0c0 26.092194 -21.151917 47.24411 -47.24414 47.24411l0 0c-26.092163 0 -47.24408 -21.151917 -47.24408 -47.24411z" fill-rule="evenodd"/><path fill="#000000" d="m814.07855 272.91003q1.78125 0 2.390625 1.5625q0.328125 -0.734375 1.015625 -1.140625q0.6875 -0.421875 1.453125 -0.421875q1.390625 0 2.09375 0.765625q0.703125 0.75 0.703125 2.109375l0 4.8125l-1.046875 0l0 -4.453125q0 -1.15625 -0.4375 -1.703125q-0.4375 -0.5625 -1.453125 -0.5625q-1.03125 0 -1.578125 0.75q-0.53125 0.734375 -0.53125 1.921875l0 4.046875l-1.0625 0l0 -4.453125q0 -1.15625 -0.4375 -1.703125q-0.421875 -0.5625 -1.421875 -0.5625q-0.953125 0 -1.546875 0.78125q-0.59375 0.78125 -0.59375 2.125l0 3.8125l-1.046875 0l0 -5.921875q0 -0.890625 -0.078125 -1.5625l1.125 0l0 1.125l0.03125 0q0.359375 -0.578125 1.03125 -0.953125q0.671875 -0.375 1.390625 -0.375zm10.897644 -3.453125q0.296875 0 0.53125 0.234375q0.234375 0.234375 0.234375 0.53125q0 0.328125 -0.234375 0.5625q-0.234375 0.21875 -0.53125 0.21875q-0.296875 0 -0.53125 -0.21875q-0.234375 -0.234375 -0.234375 -0.5625q0 -0.3125 0.234375 -0.53125q0.234375 -0.234375 0.53125 -0.234375zm0.53125 3.65625l0 7.484375l-1.0625 0l0 -7.484375l1.0625 0zm6.058777 -0.203125q1.703125 0 2.796875 1.296875l-0.859375 0.65625q-0.6875 -0.984375 -1.90625 -0.984375q-1.25 0 -2.015625 0.828125q-0.765625 0.828125 -0.765625 2.140625q0 1.34375 0.765625 2.171875q0.765625 0.8125 1.96875 0.8125q1.28125 0 1.953125 -1.0l0.859375 0.65625q-1.0625 1.296875 -2.828125 1.296875q-1.734375 0 -2.8125 -1.109375q-1.0625 -1.125 -1.0625 -2.828125q0 -1.71875 1.078125 -2.828125q1.09375 -1.109375 2.828125 -1.109375zm7.712036 0q0.421875 0 0.78125 0.109375l-0.203125 1.03125q-0.171875 -0.078125 -0.59375 -0.078125q-1.015625 0 -1.6875 0.703125q-0.65625 0.6875 -0.65625 1.765625l0 4.15625l-1.046875 0l0 -5.203125q-0.015625 -1.34375 -0.0625 -2.28125l1.03125 0l0 1.390625l0.03125 0q0.625 -1.59375 2.40625 -1.59375zm5.086487 0q1.703125 0 2.84375 1.109375q1.140625 1.109375 1.140625 2.828125q0 1.703125 -1.109375 2.828125q-1.109375 1.109375 -2.875 1.109375q-1.71875 0 -2.84375 -1.109375q-1.125 -1.125 -1.125 -2.828125q0 -1.65625 1.125 -2.796875q1.125 -1.140625 2.84375 -1.140625zm-2.8125 3.9375q0 1.296875 0.765625 2.140625q0.78125 0.84375 2.046875 0.84375q1.28125 0 2.046875 -0.859375q0.78125 -0.859375 0.78125 -2.125q0 -1.328125 -0.796875 -2.140625q-0.796875 -0.828125 -2.046875 -0.828125q-1.265625 0 -2.03125 0.859375q-0.765625 0.84375 -0.765625 2.109375z" fill-rule="nonzero"/><path fill="#000000" d="m806.4728 291.91003q1.859375 0 2.5 1.34375l-0.9375 0.625q-0.53125 -1.0 -1.625 -1.0q-0.671875 0 -1.109375 0.3125q-0.4375 0.296875 -0.4375 0.8125q0 0.484375 0.34375 0.75q0.359375 0.265625 1.390625 0.484375q1.359375 0.296875 1.8125 0.65625q0.46875 0.359375 0.640625 0.796875q0.171875 0.421875 0.171875 0.796875q0 1.0625 -0.796875 1.6875q-0.796875 0.609375 -2.109375 0.609375q-1.90625 0 -2.875 -1.453125l0.90625 -0.625q0.734375 1.125 1.96875 1.125q0.78125 0 1.265625 -0.34375q0.5 -0.34375 0.5 -0.9375q0 -0.484375 -0.421875 -0.78125q-0.40625 -0.296875 -1.59375 -0.53125q-2.359375 -0.46875 -2.359375 -2.0625q0 -1.03125 0.765625 -1.640625q0.78125 -0.625 2.0 -0.625zm7.78479 0q1.640625 0 2.609375 1.09375q0.984375 1.078125 0.984375 2.8125l0 0.328125l-6.234375 0q0.125 1.171875 0.890625 1.9375q0.765625 0.75 1.859375 0.75q0.71875 0 1.359375 -0.34375q0.65625 -0.34375 1.046875 -0.953125l0.8125 0.671875q-1.28125 1.578125 -3.21875 1.578125q-1.671875 0 -2.78125 -1.109375q-1.09375 -1.125 -1.09375 -2.828125q0 -1.640625 1.078125 -2.78125q1.09375 -1.15625 2.6875 -1.15625zm2.4375 3.375q0 -1.109375 -0.671875 -1.75q-0.65625 -0.65625 -1.75 -0.65625q-0.984375 0 -1.796875 0.71875q-0.796875 0.703125 -0.828125 1.6875l5.046875 0zm6.599121 -3.375q0.421875 0 0.78125 0.109375l-0.203125 1.03125q-0.171875 -0.078125 -0.59375 -0.078125q-1.015625 0 -1.6875 0.703125q-0.65625 0.6875 -0.65625 1.765625l0 4.15625l-1.046875 0l0 -5.203125q-0.015625 -1.34375 -0.0625 -2.28125l1.03125 0l0 1.390625l0.03125 0q0.625 -1.59375 2.40625 -1.59375zm2.1245117 0.203125l2.40625 6.328125l2.390625 -6.328125l1.203125 0l-3.03125 7.484375l-1.1875 0l-3.046875 -7.484375l1.265625 0zm8.149536 -3.65625q0.296875 0 0.53125 0.234375q0.234375 0.234375 0.234375 0.53125q0 0.328125 -0.234375 0.5625q-0.234375 0.21875 -0.53125 0.21875q-0.296875 0 -0.53125 -0.21875q-0.234375 -0.234375 -0.234375 -0.5625q0 -0.3125 0.234375 -0.53125q0.234375 -0.234375 0.53125 -0.234375zm0.53125 3.65625l0 7.484375l-1.0625 0l0 -7.484375l1.0625 0zm7.668091 0l0 0.765625l-4.375 5.765625l4.546875 0l0 0.953125l-6.078125 0l0 -0.765625l4.375 -5.765625l-4.15625 0l0 -0.953125l5.6875 0zm2.456665 -3.65625q0.296875 0 0.53125 0.234375q0.234375 0.234375 0.234375 0.53125q0 0.328125 -0.234375 0.5625q-0.234375 0.21875 -0.53125 0.21875q-0.296875 0 -0.53125 -0.21875q-0.234375 -0.234375 -0.234375 -0.5625q0 -0.3125 0.234375 -0.53125q0.234375 -0.234375 0.53125 -0.234375zm0.53125 3.65625l0 7.484375l-1.0625 0l0 -7.484375l1.0625 0zm6.121277 -0.203125q1.703125 0 2.84375 1.109375q1.140625 1.109375 1.140625 2.828125q0 1.703125 -1.109375 2.828125q-1.109375 1.109375 -2.875 1.109375q-1.71875 0 -2.84375 -1.109375q-1.125 -1.125 -1.125 -2.828125q0 -1.65625 1.125 -2.796875q1.125 -1.140625 2.84375 -1.140625zm-2.8125 3.9375q0 1.296875 0.765625 2.140625q0.78125 0.84375 2.046875 0.84375q1.28125 0 2.046875 -0.859375q0.78125 -0.859375 0.78125 -2.125q0 -1.328125 -0.796875 -2.140625q-0.796875 -0.828125 -2.046875 -0.828125q-1.265625 0 -2.03125 0.859375q-0.765625 0.84375 -0.765625 2.109375z" fill-rule="nonzero"/><path fill="#000000" fill-opacity="0.0" d="m772.57745 124.17979l0 0c0 -31.31063 25.382263 -56.69291 56.69287 -56.69291l0 0c15.035889 0 29.455994 5.9729843 40.08795 16.604973c10.632019 10.631981 16.60498 25.052048 16.60498 40.087936l0 0c0 31.31063 -25.382263 56.69291 -56.692932 56.69291l0 0c-31.310608 0 -56.69287 -25.382278 -56.69287 -56.69291z" fill-rule="evenodd"/><path fill="#b6d7a8" d="m782.02625 124.17979l0 0c0 -26.092186 21.151917 -47.244095 47.24408 -47.244095l0 0c12.529907 0 24.54663 4.9774933 33.406616 13.837479c8.859985 8.859985 13.837524 20.876709 13.837524 33.406616l0 0c0 26.092201 -21.151917 47.244102 -47.24414 47.244102l0 0c-26.092163 0 -47.24408 -21.151901 -47.24408 -47.244102z" fill-rule="evenodd"/><path fill="#000000" d="m814.07855 112.85229q1.78125 0 2.390625 1.5625q0.328125 -0.734375 1.015625 -1.140625q0.6875 -0.421875 1.453125 -0.421875q1.390625 0 2.09375 0.765625q0.703125 0.75 0.703125 2.109375l0 4.8125l-1.046875 0l0 -4.453125q0 -1.15625 -0.4375 -1.703125q-0.4375 -0.5625 -1.453125 -0.5625q-1.03125 0 -1.578125 0.75q-0.53125 0.734375 -0.53125 1.921875l0 4.046875l-1.0625 0l0 -4.453125q0 -1.15625 -0.4375 -1.703125q-0.421875 -0.5625 -1.421875 -0.5625q-0.953125 0 -1.546875 0.78125q-0.59375 0.78125 -0.59375 2.125l0 3.8125l-1.046875 0l0 -5.921875q0 -0.890625 -0.078125 -1.5625l1.125 0l0 1.125l0.03125 0q0.359375 -0.578125 1.03125 -0.953125q0.671875 -0.375 1.390625 -0.375zm10.897644 -3.453125q0.296875 0 0.53125 0.234375q0.234375 0.234375 0.234375 0.53125q0 0.328125 -0.234375 0.5625q-0.234375 0.21875 -0.53125 0.21875q-0.296875 0 -0.53125 -0.21875q-0.234375 -0.234375 -0.234375 -0.5625q0 -0.3125 0.234375 -0.53125q0.234375 -0.234375 0.53125 -0.234375zm0.53125 3.65625l0 7.484375l-1.0625 0l0 -7.484375l1.0625 0zm6.058777 -0.203125q1.703125 0 2.796875 1.296875l-0.859375 0.65625q-0.6875 -0.984375 -1.90625 -0.984375q-1.25 0 -2.015625 0.828125q-0.765625 0.828125 -0.765625 2.140625q0 1.34375 0.765625 2.171875q0.765625 0.8125 1.96875 0.8125q1.28125 0 1.953125 -1.0l0.859375 0.65625q-1.0625 1.296875 -2.828125 1.296875q-1.734375 0 -2.8125 -1.109375q-1.0625 -1.125 -1.0625 -2.828125q0 -1.71875 1.078125 -2.828125q1.09375 -1.109375 2.828125 -1.109375zm7.712036 0q0.421875 0 0.78125 0.109375l-0.203125 1.03125q-0.171875 -0.078125 -0.59375 -0.078125q-1.015625 0 -1.6875 0.703125q-0.65625 0.6875 -0.65625 1.765625l0 4.15625l-1.046875 0l0 -5.203125q-0.015625 -1.34375 -0.0625 -2.28125l1.03125 0l0 1.390625l0.03125 0q0.625 -1.59375 2.40625 -1.59375zm5.086487 0q1.703125 0 2.84375 1.109375q1.140625 1.109375 1.140625 2.828125q0 1.703125 -1.109375 2.828125q-1.109375 1.109375 -2.875 1.109375q-1.71875 0 -2.84375 -1.109375q-1.125 -1.125 -1.125 -2.828125q0 -1.65625 1.125 -2.796875q1.125 -1.140625 2.84375 -1.140625zm-2.8125 3.9375q0 1.296875 0.765625 2.140625q0.78125 0.84375 2.046875 0.84375q1.28125 0 2.046875 -0.859375q0.78125 -0.859375 0.78125 -2.125q0 -1.328125 -0.796875 -2.140625q-0.796875 -0.828125 -2.046875 -0.828125q-1.265625 0 -2.03125 0.859375q-0.765625 0.84375 -0.765625 2.109375z" fill-rule="nonzero"/><path fill="#000000" d="m806.4728 131.8523q1.859375 0 2.5 1.34375l-0.9375 0.625q-0.53125 -1.0 -1.625 -1.0q-0.671875 0 -1.109375 0.3125q-0.4375 0.296875 -0.4375 0.8125q0 0.484375 0.34375 0.75q0.359375 0.265625 1.390625 0.484375q1.359375 0.296875 1.8125 0.65625q0.46875 0.359375 0.640625 0.796875q0.171875 0.421875 0.171875 0.796875q0 1.0625 -0.796875 1.6875q-0.796875 0.609375 -2.109375 0.609375q-1.90625 0 -2.875 -1.453125l0.90625 -0.625q0.734375 1.125 1.96875 1.125q0.78125 0 1.265625 -0.34375q0.5 -0.34375 0.5 -0.9375q0 -0.484375 -0.421875 -0.78125q-0.40625 -0.296875 -1.59375 -0.53125q-2.359375 -0.46875 -2.359375 -2.0625q0 -1.03125 0.765625 -1.640625q0.78125 -0.625 2.0 -0.625zm7.78479 0q1.640625 0 2.609375 1.09375q0.984375 1.078125 0.984375 2.8125l0 0.328125l-6.234375 0q0.125 1.171875 0.890625 1.9375q0.765625 0.75 1.859375 0.75q0.71875 0 1.359375 -0.34375q0.65625 -0.34375 1.046875 -0.953125l0.8125 0.671875q-1.28125 1.578125 -3.21875 1.578125q-1.671875 0 -2.78125 -1.109375q-1.09375 -1.125 -1.09375 -2.828125q0 -1.640625 1.078125 -2.78125q1.09375 -1.15625 2.6875 -1.15625zm2.4375 3.375q0 -1.109375 -0.671875 -1.75q-0.65625 -0.65625 -1.75 -0.65625q-0.984375 0 -1.796875 0.71875q-0.796875 0.703125 -0.828125 1.6875l5.046875 0zm6.599121 -3.375q0.421875 0 0.78125 0.109375l-0.203125 1.03125q-0.171875 -0.078125 -0.59375 -0.078125q-1.015625 0 -1.6875 0.703125q-0.65625 0.6875 -0.65625 1.765625l0 4.15625l-1.046875 0l0 -5.203125q-0.015625 -1.34375 -0.0625 -2.28125l1.03125 0l0 1.390625l0.03125 0q0.625 -1.59375 2.40625 -1.59375zm2.1245117 0.203125l2.40625 6.328125l2.390625 -6.328125l1.203125 0l-3.03125 7.484375l-1.1875 0l-3.046875 -7.484375l1.265625 0zm8.149536 -3.65625q0.296875 0 0.53125 0.234375q0.234375 0.234375 0.234375 0.53125q0 0.328125 -0.234375 0.5625q-0.234375 0.21875 -0.53125 0.21875q-0.296875 0 -0.53125 -0.21875q-0.234375 -0.234375 -0.234375 -0.5625q0 -0.3125 0.234375 -0.53125q0.234375 -0.234375 0.53125 -0.234375zm0.53125 3.65625l0 7.484375l-1.0625 0l0 -7.484375l1.0625 0zm7.668091 0l0 0.765625l-4.375 5.765625l4.546875 0l0 0.953125l-6.078125 0l0 -0.765625l4.375 -5.765625l-4.15625 0l0 -0.953125l5.6875 0zm2.456665 -3.65625q0.296875 0 0.53125 0.234375q0.234375 0.234375 0.234375 0.53125q0 0.328125 -0.234375 0.5625q-0.234375 0.21875 -0.53125 0.21875q-0.296875 0 -0.53125 -0.21875q-0.234375 -0.234375 -0.234375 -0.5625q0 -0.3125 0.234375 -0.53125q0.234375 -0.234375 0.53125 -0.234375zm0.53125 3.65625l0 7.484375l-1.0625 0l0 -7.484375l1.0625 0zm6.121277 -0.203125q1.703125 0 2.84375 1.109375q1.140625 1.109375 1.140625 2.828125q0 1.703125 -1.109375 2.828125q-1.109375 1.109375 -2.875 1.109375q-1.71875 0 -2.84375 -1.109375q-1.125 -1.125 -1.125 -2.828125q0 -1.65625 1.125 -2.796875q1.125 -1.140625 2.84375 -1.140625zm-2.8125 3.9375q0 1.296875 0.765625 2.140625q0.78125 0.84375 2.046875 0.84375q1.28125 0 2.046875 -0.859375q0.78125 -0.859375 0.78125 -2.125q0 -1.328125 -0.796875 -2.140625q-0.796875 -0.828125 -2.046875 -0.828125q-1.265625 0 -2.03125 0.859375q-0.765625 0.84375 -0.765625 2.109375z" fill-rule="nonzero"/><path fill="#000000" fill-opacity="0.0" d="m647.00525 18.656168l-142.17322 65.44882" fill-rule="evenodd"/><path stroke="#000000" stroke-width="1.0" stroke-linejoin="round" stroke-linecap="butt" d="m647.00525 18.656168l-142.17322 65.44882" fill-rule="evenodd"/><path fill="#000000" fill-opacity="0.0" d="m647.00525 18.656168l142.17322 65.44882" fill-rule="evenodd"/><path stroke="#000000" stroke-width="1.0" stroke-linejoin="round" stroke-linecap="butt" d="m647.00525 18.656168l142.17322 65.44882" fill-rule="evenodd"/><path fill="#000000" fill-opacity="0.0" d="m647.00525 18.656168l142.17322 225.48032" fill-rule="evenodd"/><path stroke="#000000" stroke-width="1.0" stroke-linejoin="round" stroke-linecap="butt" d="m647.00525 18.656168l142.17322 225.48032" fill-rule="evenodd"/><path fill="#000000" fill-opacity="0.0" d="m647.00525 18.656168l0 208.88188" fill-rule="evenodd"/><path stroke="#000000" stroke-width="1.0" stroke-linejoin="round" stroke-linecap="butt" d="m647.00525 18.656168l0 208.88188" fill-rule="evenodd"/><path fill="#000000" fill-opacity="0.0" d="m464.73883 180.8727l0 46.67717" fill-rule="evenodd"/><path stroke="#000000" stroke-width="1.0" stroke-linejoin="round" stroke-linecap="butt" d="m464.73883 180.8727l0 46.67717" fill-rule="evenodd"/><path fill="#000000" fill-opacity="0.0" d="m504.82678 164.26773l102.078735 79.87402" fill-rule="evenodd"/><path stroke="#000000" stroke-width="1.0" stroke-linejoin="round" stroke-linecap="butt" d="m504.82678 164.26773l102.078735 79.87402" fill-rule="evenodd"/><path fill="#ffffff" d="m543.06824 9.207349l207.87402 0l0 66.14173l-207.87402 0z" fill-rule="evenodd"/><path fill="#3c78d8" d="m552.5171 26.530342l0 0c0 -4.3487873 3.5253296 -7.874174 7.8741455 -7.874174l173.22803 0c2.088379 0 4.0911865 0.8295975 5.567871 2.3062916c1.4766846 1.4766941 2.3062744 3.4795208 2.3062744 5.5678825l0 31.495747c0 4.3487854 -3.5253296 7.874172 -7.8741455 7.874172l-173.22803 0c-4.348816 0 -7.8741455 -3.5253868 -7.8741455 -7.874172z" fill-rule="evenodd"/><path fill="#ffffff" d="m576.303 35.995087q0.4375 0 0.75 0.3125q0.3125 0.296875 0.3125 0.75q0 0.46875 -0.296875 0.765625q-0.296875 0.296875 -0.765625 0.296875q-0.46875 0 -0.765625 -0.296875q-0.296875 -0.296875 -0.296875 -0.765625q0 -0.453125 0.3125 -0.75q0.328125 -0.3125 0.75 -0.3125zm0.734375 4.46875l0 8.734375l-1.453125 0l0 -8.734375l1.453125 0zm7.180664 -0.21875q1.640625 0 2.484375 0.953125q0.84375 0.953125 0.84375 2.53125l0 5.46875l-1.46875 0l0 -5.296875q0 -1.015625 -0.46875 -1.65625q-0.453125 -0.640625 -1.515625 -0.65625q-1.34375 0 -2.03125 0.890625q-0.6875 0.875 -0.6875 2.453125l0 4.265625l-1.453125 0l0 -6.796875q0 -0.09375 -0.0625 -1.9375l1.375 0q0.03125 1.3125 0.03125 1.4375l0.046875 0q0.34375 -0.75 1.140625 -1.203125q0.796875 -0.453125 1.765625 -0.453125zm8.279114 -2.265625l0 2.484375l2.578125 0l0 1.234375l-2.578125 0l0 4.671875q0 1.03125 0.328125 1.375q0.34375 0.328125 0.984375 0.328125q0.71875 0 1.28125 -0.296875l0.0625 1.328125q-0.75 0.3125 -1.703125 0.3125q-1.34375 0 -1.875 -0.65625q-0.53125 -0.65625 -0.53125 -2.171875l0 -4.890625l-1.90625 0l0 -1.234375l1.90625 0l0 -2.484375l1.453125 0zm8.348267 2.265625q1.9375 0 3.03125 1.21875q1.09375 1.21875 1.109375 3.46875l0 0.34375l-7.0625 0q0.125 1.21875 0.921875 2.0q0.796875 0.78125 1.953125 0.796875q1.78125 0 2.765625 -1.3125l1.09375 0.859375q-0.6875 0.890625 -1.625 1.34375q-0.921875 0.453125 -2.234375 0.453125q-1.984375 0 -3.203125 -1.296875q-1.21875 -1.296875 -1.234375 -3.28125q0 -1.984375 1.234375 -3.265625q1.25 -1.296875 3.25 -1.328125zm2.5625 3.796875q-0.046875 -1.125 -0.734375 -1.78125q-0.671875 -0.671875 -1.90625 -0.671875q-1.125 0 -1.890625 0.640625q-0.765625 0.625 -0.953125 1.8125l5.484375 0zm8.122864 -3.796875q0.328125 0 0.59375 0.09375l-0.09375 1.46875q-0.40625 -0.109375 -0.78125 -0.109375q-1.265625 0 -1.921875 0.828125q-0.640625 0.828125 -0.640625 2.34375l0 4.328125l-1.453125 0l0 -6.796875q0 -0.25 -0.0625 -1.9375l1.375 0q0.03125 1.3125 0.03125 1.4375l0.046875 0q0.34375 -0.75 1.140625 -1.203125q0.796875 -0.453125 1.765625 -0.453125zm6.0982666 -5.375q0.734375 0 1.140625 0.21875l-0.203125 1.3125q-0.53125 -0.1875 -0.984375 -0.1875q-0.921875 0 -1.25 0.53125q-0.328125 0.53125 -0.328125 1.765625l0 1.953125l2.125 0l0 1.234375l-2.125 0l0 7.5l-1.453125 0l0 -7.5l-1.90625 0l0 -1.234375l1.90625 0l0 -1.96875q0 -3.625 3.078125 -3.625zm5.407959 5.375q1.90625 0 2.765625 0.90625q0.875 0.890625 0.890625 2.6875l0 3.921875q0 0.5625 0.140625 1.4375l-1.40625 0q-0.09375 -0.171875 -0.09375 -1.3125l-0.03125 0q-1.0 1.5 -2.875 1.53125q-1.4375 0 -2.34375 -0.71875q-0.90625 -0.71875 -0.90625 -1.875q0 -1.578125 1.296875 -2.3125q1.3125 -0.734375 4.09375 -0.734375l0.671875 0l0 -0.25q0 -1.90625 -2.15625 -1.9375q-1.578125 0 -2.59375 0.953125l-0.921875 -0.953125q1.34375 -1.3125 3.46875 -1.34375zm-2.296875 6.4375q0 1.46875 1.921875 1.515625q1.140625 0 1.859375 -0.734375q0.71875 -0.734375 0.71875 -2.125l0 -0.34375l-1.609375 0q-1.28125 0 -2.078125 0.421875q-0.78125 0.40625 -0.8125 1.265625zm12.651367 -6.4375q2.078125 0 3.34375 1.375l-1.15625 1.03125q-0.875 -1.0625 -2.203125 -1.0625q-1.359375 0 -2.15625 0.890625q-0.796875 0.875 -0.796875 2.359375q0 1.390625 0.84375 2.3125q0.859375 0.90625 2.109375 0.921875q1.4375 0 2.21875 -1.078125l1.078125 1.03125q-1.203125 1.375 -3.296875 1.390625q-2.0 -0.015625 -3.234375 -1.265625q-1.234375 -1.25 -1.28125 -3.3125q0.015625 -2.09375 1.296875 -3.34375q1.296875 -1.25 3.234375 -1.25zm8.99231 0q2.078125 0 3.34375 1.375l-1.15625 1.03125q-0.875 -1.0625 -2.203125 -1.0625q-1.359375 0 -2.15625 0.890625q-0.796875 0.875 -0.796875 2.359375q0 1.390625 0.84375 2.3125q0.859375 0.90625 2.109375 0.921875q1.4375 0 2.21875 -1.078125l1.078125 1.03125q-1.203125 1.375 -3.296875 1.390625q-2.0 -0.015625 -3.234375 -1.265625q-1.234375 -1.25 -1.28125 -3.3125q0.015625 -2.09375 1.296875 -3.34375q1.296875 -1.25 3.234375 -1.25zm5.8204346 -4.25q0.4375 0 0.75 0.3125q0.3125 0.296875 0.3125 0.75q0 0.46875 -0.296875 0.765625q-0.296875 0.296875 -0.765625 0.296875q-0.46875 0 -0.765625 -0.296875q-0.296875 -0.296875 -0.296875 -0.765625q0 -0.453125 0.3125 -0.75q0.328125 -0.3125 0.75 -0.3125zm0.734375 4.46875l0 8.734375l-1.453125 0l0 -8.734375l1.453125 0zm6.243103 -0.21875q1.90625 0 2.765625 0.90625q0.875 0.890625 0.890625 2.6875l0 3.921875q0 0.5625 0.140625 1.4375l-1.40625 0q-0.09375 -0.171875 -0.09375 -1.3125l-0.03125 0q-1.0 1.5 -2.875 1.53125q-1.4375 0 -2.34375 -0.71875q-0.90625 -0.71875 -0.90625 -1.875q0 -1.578125 1.296875 -2.3125q1.3125 -0.734375 4.09375 -0.734375l0.671875 0l0 -0.25q0 -1.90625 -2.15625 -1.9375q-1.578125 0 -2.59375 0.953125l-0.921875 -0.953125q1.34375 -1.3125 3.46875 -1.34375zm-2.296875 6.4375q0 1.46875 1.921875 1.515625q1.140625 0 1.859375 -0.734375q0.71875 -0.734375 0.71875 -2.125l0 -0.34375l-1.609375 0q-1.28125 0 -2.078125 0.421875q-0.78125 0.40625 -0.8125 1.265625zm15.259644 -6.21875l0 5.296875q0 1.015625 0.46875 1.65625q0.484375 0.640625 1.53125 0.65625q1.34375 0 2.015625 -0.890625q0.6875 -0.890625 0.6875 -2.390625l0 -4.328125l1.46875 0l0 6.796875q0.015625 0.515625 0.0625 1.9375l-1.375 0q-0.015625 -0.890625 -0.03125 -1.4375l-0.046875 0q-0.328125 0.734375 -1.125 1.203125q-0.796875 0.453125 -1.796875 0.453125q-1.609375 -0.015625 -2.46875 -0.953125q-0.84375 -0.9375 -0.84375 -2.53125l0 -5.46875l1.453125 0zm11.122925 -2.484375l0 2.484375l2.578125 0l0 1.234375l-2.578125 0l0 4.671875q0 1.03125 0.328125 1.375q0.34375 0.328125 0.984375 0.328125q0.71875 0 1.28125 -0.296875l0.0625 1.328125q-0.75 0.3125 -1.703125 0.3125q-1.34375 0 -1.875 -0.65625q-0.53125 -0.65625 -0.53125 -2.171875l0 -4.890625l-1.90625 0l0 -1.234375l1.90625 0l0 -2.484375l1.453125 0zm8.348206 2.265625q1.9375 0 3.03125 1.21875q1.09375 1.21875 1.109375 3.46875l0 0.34375l-7.0625 0q0.125 1.21875 0.921875 2.0q0.796875 0.78125 1.953125 0.796875q1.78125 0 2.765625 -1.3125l1.09375 0.859375q-0.6875 0.890625 -1.625 1.34375q-0.921875 0.453125 -2.234375 0.453125q-1.984375 0 -3.203125 -1.296875q-1.21875 -1.296875 -1.234375 -3.28125q0 -1.984375 1.234375 -3.265625q1.25 -1.296875 3.25 -1.328125zm2.5625 3.796875q-0.046875 -1.125 -0.734375 -1.78125q-0.671875 -0.671875 -1.90625 -0.671875q-1.125 0 -1.890625 0.640625q-0.765625 0.625 -0.953125 1.8125l5.484375 0zm8.122925 -3.796875q1.640625 0 2.484375 0.953125q0.84375 0.953125 0.84375 2.53125l0 5.46875l-1.46875 0l0 -5.296875q0 -1.015625 -0.46875 -1.65625q-0.453125 -0.640625 -1.515625 -0.65625q-1.34375 0 -2.03125 0.890625q-0.6875 0.875 -0.6875 2.453125l0 4.265625l-1.453125 0l0 -6.796875q0 -0.09375 -0.0625 -1.9375l1.375 0q0.03125 1.3125 0.03125 1.4375l0.046875 0q0.34375 -0.75 1.140625 -1.203125q0.796875 -0.453125 1.765625 -0.453125zm8.279114 -2.265625l0 2.484375l2.578125 0l0 1.234375l-2.578125 0l0 4.671875q0 1.03125 0.328125 1.375q0.34375 0.328125 0.984375 0.328125q0.71875 0 1.28125 -0.296875l0.0625 1.328125q-0.75 0.3125 -1.703125 0.3125q-1.34375 0 -1.875 -0.65625q-0.53125 -0.65625 -0.53125 -2.171875l0 -4.890625l-1.90625 0l0 -1.234375l1.90625 0l0 -2.484375l1.453125 0zm8.348267 2.265625q1.9375 0 3.03125 1.21875q1.09375 1.21875 1.109375 3.46875l0 0.34375l-7.0625 0q0.125 1.21875 0.921875 2.0q0.796875 0.78125 1.953125 0.796875q1.78125 0 2.765625 -1.3125l1.09375 0.859375q-0.6875 0.890625 -1.625 1.34375q-0.921875 0.453125 -2.234375 0.453125q-1.984375 0 -3.203125 -1.296875q-1.21875 -1.296875 -1.234375 -3.28125q0 -1.984375 1.234375 -3.265625q1.25 -1.296875 3.25 -1.328125zm2.5625 3.796875q-0.046875 -1.125 -0.734375 -1.78125q-0.671875 -0.671875 -1.90625 -0.671875q-1.125 0 -1.890625 0.640625q-0.765625 0.625 -0.953125 1.8125l5.484375 0z" fill-rule="nonzero"/><path fill="#000000" fill-opacity="0.0" d="m647.0066 347.90814l-73.66931 33.606293" fill-rule="evenodd"/><path stroke="#000000" stroke-width="4.0" stroke-linejoin="round" stroke-linecap="butt" d="m647.0066 347.90814l-73.66931 33.606293" fill-rule="evenodd"/><path fill="#000000" fill-opacity="0.0" d="m829.27167 347.90945l0 34.64566" fill-rule="evenodd"/><path stroke="#000000" stroke-width="4.0" stroke-linejoin="round" stroke-linecap="butt" d="m829.27167 347.90945l0 34.64566" fill-rule="evenodd"/><path fill="#000000" fill-opacity="0.0" d="m147.56299 287.1076l0 60.787415" fill-rule="evenodd"/><path stroke="#000000" stroke-width="4.0" stroke-linejoin="round" stroke-linecap="butt" d="m147.56299 287.1076l0 60.787415" fill-rule="evenodd"/><path fill="#000000" fill-opacity="0.0" d="m538.40814 382.03543l-73.66931 -33.606293" fill-rule="evenodd"/><path stroke="#000000" stroke-width="4.0" stroke-linejoin="round" stroke-linecap="butt" d="m538.40814 382.03543l-73.66931 -33.606293" fill-rule="evenodd"/></g></svg>